<?xml version="1.0" encoding="UTF-8" standalone="no"?>
<!-- Created with Inkscape (http://www.inkscape.org/) -->

<svg
   xmlns:dc="http://purl.org/dc/elements/1.1/"
   xmlns:cc="http://creativecommons.org/ns#"
   xmlns:rdf="http://www.w3.org/1999/02/22-rdf-syntax-ns#"
   xmlns:svg="http://www.w3.org/2000/svg"
   xmlns="http://www.w3.org/2000/svg"
   xmlns:sodipodi="http://sodipodi.sourceforge.net/DTD/sodipodi-0.dtd"
   xmlns:inkscape="http://www.inkscape.org/namespaces/inkscape"
   width="210mm"
   height="297mm"
   viewBox="0 0 210 297"
   version="1.1"
   id="svg934"
   inkscape:version="0.92.3 (2405546, 2018-03-11)"
   sodipodi:docname="Muster_rund 7x7.svg">
  <defs
     id="defs928">
    <inkscape:path-effect
       effect="bspline"
       id="path-effect1589"
       is_visible="true"
       weight="33.333333"
       steps="2"
       helper_size="0"
       apply_no_weight="true"
       apply_with_weight="true"
       only_selected="false" />
    <clipPath
       clipPathUnits="userSpaceOnUse"
       id="clipPath3163">
      <rect
         style="fill:none;fill-opacity:1;stroke:#00ff00;stroke-width:0.18506518;stroke-miterlimit:4;stroke-dasharray:none;stroke-dashoffset:0;stroke-opacity:1"
         id="rect3165"
         width="69.814934"
         height="69.814934"
         x="118.94984"
         y="34.140797" />
    </clipPath>
    <clipPath
       clipPathUnits="userSpaceOnUse"
       id="clipPath3163-5">
      <rect
         style="fill:none;fill-opacity:1;stroke:#00ff00;stroke-width:0.18506518;stroke-miterlimit:4;stroke-dasharray:none;stroke-dashoffset:0;stroke-opacity:1"
         id="rect3165-4"
         width="69.814934"
         height="69.814934"
         x="118.94984"
         y="34.140797" />
    </clipPath>
    <clipPath
       clipPathUnits="userSpaceOnUse"
       id="clipPath3163-5-7">
      <rect
         style="fill:none;fill-opacity:1;stroke:#00ff00;stroke-width:0.18506518;stroke-miterlimit:4;stroke-dasharray:none;stroke-dashoffset:0;stroke-opacity:1"
         id="rect3165-4-6"
         width="69.814934"
         height="69.814934"
         x="118.94984"
         y="34.140797" />
    </clipPath>
    <clipPath
       clipPathUnits="userSpaceOnUse"
       id="clipPath3163-5-5">
      <rect
         style="fill:none;fill-opacity:1;stroke:#00ff00;stroke-width:0.18506518;stroke-miterlimit:4;stroke-dasharray:none;stroke-dashoffset:0;stroke-opacity:1"
         id="rect3165-4-69"
         width="69.814934"
         height="69.814934"
         x="118.94984"
         y="34.140797" />
    </clipPath>
  </defs>
  <sodipodi:namedview
     id="base"
     pagecolor="#ffffff"
     bordercolor="#666666"
     borderopacity="1.0"
     inkscape:pageopacity="0.0"
     inkscape:pageshadow="2"
     inkscape:zoom="1.28"
     inkscape:cx="409.08215"
     inkscape:cy="807.70035"
     inkscape:document-units="mm"
     inkscape:current-layer="g3355"
     showgrid="false"
     showguides="false"
     inkscape:window-width="1853"
     inkscape:window-height="1025"
     inkscape:window-x="1987"
     inkscape:window-y="27"
     inkscape:window-maximized="1"
     inkscape:lockguides="false" />
  <metadata
     id="metadata931">
    <rdf:RDF>
      <cc:Work
         rdf:about="">
        <dc:format>image/svg+xml</dc:format>
        <dc:type
           rdf:resource="http://purl.org/dc/dcmitype/StillImage" />
        <dc:title></dc:title>
      </cc:Work>
    </rdf:RDF>
  </metadata>
  <g
     inkscape:label="Ebene 1"
     inkscape:groupmode="layer"
     id="layer1">
    <g
       id="g3355">
      <g
         id="g3379">
        <path
           transform="translate(-67.553672,-18.345653)"
           d="m 119.63933,42.176577 c 0.23943,1.24394 1.16841,2.239673 2.39215,2.563504 1.30912,0.346871 2.63756,0.621154 3.97716,0.821448 0.82888,0.124572 1.66517,0.198858 2.50422,0.2236 0.73284,0.02174 1.46614,-0.03345 2.1874,-0.163983 1.1322,-0.206129 2.03664,-1.056985 2.31092,-2.175855 0.17568,-0.712848 0.25398,-1.447335 0.23668,-2.181723 -0.0192,-0.776834 -0.22071,-1.53893 -0.58932,-2.223969 -0.29623,-0.553134 -0.80131,-0.96399 -1.40245,-1.143945 -0.62409,-0.185722 -1.27682,-0.25691 -1.92625,-0.210496 -1.53267,0.110496 -3.06573,0.182988 -4.60126,0.220899 -0.91757,0.02304 -1.82964,0.125871 -2.72878,0.306693 -0.63762,0.128639 -1.22247,0.445167 -1.67844,0.908107 -0.3206,0.325164 -0.53703,0.736288 -0.62259,1.184389 -0.11922,0.617119 -0.13874,1.248475 -0.0594,1.871331 z m 2.00453,53.479131 c 0.10901,0.51542 0.31065,1.006035 0.59364,1.450169 0.30369,0.476077 0.79698,0.800575 1.35584,0.889868 0.5414,0.08849 1.0947,0.04631 1.61709,-0.120603 0.63583,-0.20473 1.22456,-0.534095 1.72908,-0.97116 1.33241,-1.153948 2.66784,-2.305827 4.00318,-3.454774 0.55887,-0.48031 1.03654,-1.046381 1.4167,-1.676538 0.59053,-0.976893 0.69828,-2.169986 0.29328,-3.236907 -0.27732,-0.728719 -0.97116,-1.212165 -1.75052,-1.217933 -0.48535,-0.003 -0.96826,0.06995 -1.43127,0.219199 -2.09177,0.670568 -4.07029,1.651864 -5.86883,2.910542 -0.46731,0.326365 -0.88693,0.714049 -1.2499,1.152514 -0.45728,0.554534 -0.73003,1.23734 -0.77851,1.953855 -0.0473,0.702078 -0.024,1.405457 0.0701,2.101767 z m 0.9857,-39.90738 c 0.93324,1.919545 2.59891,3.381151 4.62349,4.056088 1.44703,0.480611 3.03635,-0.05359 3.89588,-1.312062 0.53713,-0.786771 0.86498,-1.696977 0.95074,-2.646296 0.0847,-0.934949 0.0699,-1.878033 -0.0435,-2.810247 -0.12073,-0.995733 -0.43412,-1.958289 -0.92323,-2.835053 -0.56777,-1.017473 -1.68252,-1.601116 -2.84234,-1.487881 -1.33693,0.13074 -2.60524,0.647628 -3.65173,1.488081 -1.06301,0.854823 -1.75679,2.084294 -1.93685,3.435667 -0.0943,0.699812 -0.11745,1.40669 -0.0725,2.111703 z m 0.55943,12.174966 c 0.25598,0.92021 0.53649,1.83325 0.84273,2.73769 0.30765,0.910107 0.75481,1.766498 1.32662,2.538697 0.66061,0.892336 1.70585,1.416926 2.81605,1.411058 1.89308,-0.0087 3.66987,-0.908673 4.79605,-2.431532 0.72341,-0.979761 1.09762,-2.174454 1.06275,-3.392387 -0.0203,-0.712581 -0.15975,-1.416626 -0.41085,-2.082962 -0.25398,-0.672101 -0.65918,-1.274582 -1.1845,-1.763496 -1.6447,-1.526926 -3.82492,-2.341638 -6.06769,-2.268883 -0.46587,0.01587 -0.92758,0.103137 -1.36748,0.258311 -0.44837,0.158214 -0.83315,0.457105 -1.09862,0.851989 -0.32204,0.479011 -0.52987,1.024742 -0.60966,1.596015 -0.1162,0.842587 -0.15142,1.694843 -0.10536,2.5455 z m 7.53339,11.304202 c 0.1945,0.599613 0.42832,1.185224 0.69838,1.755729 0.38184,0.801141 0.78384,1.592346 1.20469,2.37428 0.69831,1.295258 1.59962,2.468778 2.67087,3.47698 0.6363,0.599613 1.50102,0.892702 2.37056,0.804343 0.98119,-0.09896 1.83901,-0.699911 2.2669,-1.588178 0.41246,-0.856526 0.517,-1.827683 0.29516,-2.752329 -0.1963,-0.820013 -0.54732,-1.594213 -1.03371,-2.28322 -0.27712,-0.393486 -0.5516,-0.788205 -0.82305,-1.186024 -0.26572,-0.391751 -0.56256,-0.760662 -0.88537,-1.1047 -0.30922,-0.329565 -0.60818,-0.669167 -0.89564,-1.017573 -0.25847,-0.313393 -0.53428,-0.611717 -0.82881,-0.892502 -0.41236,-0.396419 -0.79977,-0.818813 -1.15848,-1.264447 -0.49205,0.04941 -0.98683,0.07976 -1.48061,0.09149 -0.61681,0.01444 -1.19317,0.303592 -1.57331,0.789504 -0.61985,0.794006 -0.91607,1.792774 -0.82758,2.796642 z m 3.10497,-19.79886 c 0.029,0.98853 0.22813,1.963857 0.59091,2.884335 0.3123,0.795273 0.90857,1.445535 1.67217,1.828717 0.84018,0.41966 1.82314,0.438465 2.67804,0.04951 1.04214,-0.474644 2.03931,-1.042214 2.98002,-1.695344 1.32246,-0.917443 2.70593,-1.746259 4.13859,-2.479347 2.65073,-1.357342 4.59872,-3.774335 5.35938,-6.652935 0.55586,-2.1031 -0.0444,-4.340774 -1.57954,-5.881404 -0.54594,-0.547332 -1.25105,-0.90754 -2.01454,-1.029276 -0.14244,-0.02334 -0.28763,-0.03442 -0.4327,-0.03345 -0.92475,0.0078 -1.83326,0.248173 -2.63976,0.70111 -1.05302,0.589311 -2.07045,1.242508 -3.04598,1.953755 -1.98154,1.466142 -3.92669,2.98163 -5.83404,4.544735 -1.11049,0.910373 -1.80139,2.232772 -1.91454,3.664136 -0.0567,0.715115 -0.0422,1.433632 0.042,2.145445 z m 0.89063,-14.986377 c 0.0631,0.50235 0.19902,0.994499 0.40432,1.458938 0.83299,1.881166 2.94799,2.830685 4.90628,2.199428 1.68097,-0.540162 3.19142,-1.508421 4.38236,-2.811879 0.91303,-0.998867 1.3615,-2.335703 1.23379,-3.682742 -0.0463,-0.496416 -0.13209,-0.988564 -0.25831,-1.470409 -0.2412,-0.933348 -0.70555,-1.794206 -1.35137,-2.509889 -0.68394,-0.757728 -1.58668,-1.284653 -2.58391,-1.508086 -0.98997,-0.2207 -2.01924,-0.179989 -2.98901,0.118964 -0.68503,0.211931 -1.29609,0.612584 -1.76225,1.158316 -0.66304,0.7737 -1.14384,1.685407 -1.41065,2.668003 -0.13648,0.502284 -0.26145,1.008871 -0.37466,1.517091 -0.2089,0.938947 -0.27561,1.903005 -0.19659,2.862261 z m 2.54673,26.864652 0.12123,2.56934 c 0.18641,0.545631 0.46238,1.055451 0.81785,1.509621 0.55303,0.708314 1.3878,1.137977 2.28635,1.177189 0.75784,0.03357 1.51684,-0.0073 2.26746,-0.122003 1.0087,-0.155213 1.99722,-0.420894 2.94799,-0.794038 1.52415,-0.598114 2.61736,-1.95809 2.87272,-3.575177 0.15095,-0.95302 0.183,-1.920412 0.0945,-2.881266 -0.10208,-1.117838 -0.4502,-2.200831 -1.01917,-3.168855 -0.66257,-1.130807 -1.91887,-1.773901 -3.22331,-1.65053 -1.57407,0.14801 -3.01564,0.940716 -3.98443,2.191926 -0.80361,1.036479 -1.54093,2.122172 -2.20933,3.250345 -0.30265,0.511987 -0.62655,1.010004 -0.97193,1.493449 z m 6.54278,12.16863 c 0.32333,1.527093 1.07199,2.930782 2.15962,4.050519 1.06678,1.099698 2.20761,2.12294 3.41532,3.06639 0.87554,0.68354 1.82181,1.27315 2.82059,1.758095 1.05822,0.512489 2.29939,0.474777 3.32356,-0.103199 1.0676,-0.601681 2.11257,-1.242407 3.13295,-1.920211 0.98713,-0.654897 1.64335,-1.70288 1.80311,-2.877067 0.14792,-1.093295 -0.35445,-2.17192 -1.28733,-2.762365 -0.67682,-0.428329 -1.36036,-0.847888 -2.04854,-1.258679 -0.73165,-0.436831 -1.4343,-0.924744 -2.10187,-1.455837 -0.66777,-0.53136 -1.35676,-1.035146 -2.06565,-1.509789 -0.49668,-0.332433 -1.02334,-0.618418 -1.57304,-0.854824 -0.74659,-0.321362 -1.54337,-0.50962 -2.35488,-0.556134 -0.80861,-0.04641 -1.61909,0.006 -2.41539,0.152447 -1.17869,0.219299 -2.15118,1.048582 -2.55343,2.178922 -0.23944,0.669269 -0.32554,1.383316 -0.25502,2.091729 z m 7.32427,-8.188431 c 0.29896,0.930413 0.7518,1.802809 1.33978,2.582377 0.28458,0.37738 0.61265,0.720017 0.97712,1.020473 0.96226,0.79244 2.05288,1.413893 3.22518,1.838821 1.20993,0.438565 2.51142,0.559068 3.782,0.348872 1.2202,-0.200461 2.27992,-0.952353 2.87226,-2.038146 0.47061,-0.862394 0.70389,-1.834854 0.67484,-2.817649 -0.0132,-0.461607 -0.0653,-0.921711 -0.15244,-1.376148 -0.24961,-1.281085 -1.17096,-2.326734 -2.40989,-2.733256 -1.5116,-0.496383 -3.09591,-0.731554 -4.68682,-0.692308 -1.02634,0.02324 -2.05268,0.03921 -3.07896,0.04347 -0.30036,0.0016 -0.59931,0.0086 -0.89847,0.0204 -0.81871,0.03355 -1.49602,0.650162 -1.60528,1.463207 -0.1046,0.775034 -0.11771,1.56037 -0.0393,2.339871 z m 0.43403,-13.878745 c 0.0551,1.717383 0.50359,3.398357 1.30933,4.916013 0.34841,0.653863 0.84922,1.214233 1.46181,1.632092 0.6619,0.451703 1.5514,0.373145 2.12361,-0.188658 0.67066,-0.658864 1.21056,-1.436931 1.59252,-2.296258 0.65955,-1.484617 0.96469,-3.076231 0.92074,-4.656452 -0.0482,-1.733852 -0.51673,-3.453987 -1.39846,-5.004021 -0.47928,-0.844788 -1.16388,-1.555037 -1.98993,-2.06699 -0.72432,-0.448904 -1.66664,-0.306324 -2.22692,0.336968 -0.54715,0.628357 -0.96377,1.357643 -1.22646,2.14818 -0.55612,1.666501 -0.74902,3.4316 -0.56624,5.179126 z m 3.77164,38.478753 c 0.0912,0.796442 0.4039,1.440042 0.53628,2.062412 0.86103,4.04811 6.51356,3.17358 8.8693,0.0463 0.2524,-0.33507 0.46696,-0.696 0.63372,-1.07951 0.59297,-1.466057 0.89119,-3.033328 0.87956,-4.613371 -0.009,-0.925979 -0.17703,-1.843187 -0.49925,-2.709982 -0.33554,-0.905107 -1.06122,-1.609819 -1.97426,-1.921713 -0.53117,-0.180254 -1.09146,-0.252742 -1.65027,-0.21353 -1.28316,0.09149 -2.51875,0.513888 -3.58858,1.227969 -2.36301,1.586844 -3.60988,4.383887 -3.2065,7.201405 z m 3.55518,-48.079276 c 0.52095,1.6649 1.40931,3.190394 2.59957,4.463744 1.42113,1.521058 2.93522,2.950887 4.53331,4.283288 1.28618,1.071357 2.6783,2.009906 4.15514,2.798844 0.61019,0.326463 1.27661,0.532593 1.9633,0.607816 0.58637,0.06419 1.17872,-0.04905 1.69988,-0.323431 0.51681,-0.271815 0.97096,-0.647328 1.33533,-1.101699 0.0714,-1.25271 -0.14368,-2.503919 -0.62976,-3.659467 -0.61862,-1.471811 -1.25867,-2.933617 -1.92087,-4.385288 -1.5138,-3.315364 -3.60979,-6.329137 -6.19207,-8.899711 -0.52569,-0.523891 -1.19556,-0.878031 -1.92351,-1.018974 -0.63289,-0.121839 -1.28752,-0.05369 -1.88137,0.19746 -1.80544,0.764996 -3.14681,2.331435 -3.62242,4.232908 -0.22996,0.917275 -0.26918,1.871161 -0.11657,2.80451 z m 1.3236,16.110916 c 0.0812,0.428363 0.20952,0.846322 0.38345,1.246209 0.29592,0.678637 0.89686,1.175686 1.61831,1.337803 1.25754,0.282317 2.57037,0.17862 3.7678,-0.29689 0.9135,-0.363609 1.55811,-1.192527 1.6857,-2.16792 0.10612,-0.816545 0.0113,-1.647062 -0.27418,-2.419828 -0.36154,-0.977027 -1.30055,-1.618587 -2.34276,-1.601114 -1.20954,0.02174 -2.4053,0.269946 -3.52313,0.734387 -0.67344,0.280051 -1.15188,0.889801 -1.26292,1.610017 -0.0797,0.515122 -0.0973,1.03768 -0.0523,1.557336 z m 4.54209,18.098348 c 0.36,0.453003 0.84051,0.797439 1.38618,0.993065 0.23816,0.08562 0.49214,0.115966 0.74326,0.08999 0.78372,-0.08213 1.51842,-0.416625 2.09413,-0.953787 0.62769,-0.585042 1.12406,-1.29769 1.4565,-2.088895 0.75176,-1.791106 1.55034,-3.56214 2.39361,-5.312701 0.4122,-0.855089 0.75907,-1.741824 1.03649,-2.65043 0.35273,-1.157148 0.52542,-2.361778 0.51389,-3.571008 -0.0176,-1.599616 -1.15255,-2.966994 -2.72182,-3.276152 -0.31644,-0.06248 -0.63872,-0.09449 -0.96236,-0.09876 -0.93562,-0.0087 -1.80007,0.494883 -2.25281,1.313695 -0.33533,0.608116 -0.59231,1.256879 -0.76206,1.930481 -0.41966,1.662668 -0.89141,3.312532 -1.41539,4.945589 -0.11468,0.36011 -0.2279,0.72135 -0.33961,1.081359 -0.75916,2.461874 -1.15265,5.021012 -1.17001,7.597554 z m 2.78113,16.142974 c 0.0669,0.28468 0.15692,0.5633 0.27128,0.83201 1.0651,1.96788 3.39498,1.93814 4.90954,0.83308 0.91305,-0.68514 1.75501,-1.46016 2.51266,-2.31216 1.15262,-1.32541 2.22728,-2.716124 3.2197,-4.164693 1.03412,-1.50812 1.99874,-3.062922 2.89015,-4.65957 0.88089,-1.617086 1.69807,-3.266316 2.45023,-4.947021 0.46731,-1.040881 0.86957,-2.109203 1.2048,-3.199463 0.50975,-1.654532 0.2568,-3.44884 -0.69242,-4.897474 -0.87239,-1.331168 -2.11803,-2.374917 -3.58267,-2.999205 -0.83748,-0.357006 -1.78427,-0.349804 -2.61555,0.0204 -0.58949,0.262847 -1.1062,0.660666 -1.51065,1.162751 -0.70302,0.873995 -1.33884,1.801576 -1.90225,2.772534 -0.91444,1.58231 -1.72862,3.219735 -2.4371,4.903543 -0.73392,1.792607 -1.39062,3.614787 -1.96823,5.463812 -0.27871,0.914341 -0.55179,1.82995 -0.81898,2.747227 -0.26824,0.919375 -0.54272,1.836819 -0.82287,2.752594 -0.28892,0.926547 -0.56311,1.858126 -0.82152,2.793908 -0.26108,0.942557 -0.35717,1.922497 -0.28612,2.897717 z m 4.20261,-56.030981 c 0.38458,2.348641 1.01539,4.649534 1.88096,6.865966 0.34696,0.889769 0.82314,1.724554 1.41396,2.475113 0.67287,0.857824 1.5721,1.510921 2.59591,1.885501 1.7617,0.643094 3.71118,-0.251143 4.36847,-2.007438 0.41834,-1.115003 0.63317,-2.296458 0.63467,-3.487183 0.002,-2.537131 -0.45434,-5.052688 -1.3514,-7.425802 -0.31794,-0.843554 -0.74574,-1.64186 -1.27106,-2.373515 -0.36473,-0.50802 -0.81192,-0.950618 -1.32577,-1.307894 -0.9118,-0.635724 -2.07322,-0.790937 -3.1198,-0.416557 -0.87646,0.313695 -1.67484,0.81001 -2.3427,1.457371 -1.16219,1.123605 -1.71282,2.734824 -1.48324,4.334438 z M 160.09047,34.362524 h -14.97465 l 0.0206,0.458771 c 0.26267,2.737791 1.20252,5.366483 2.73608,7.649903 0.85499,1.27295 2.1702,2.162717 3.66827,2.483714 0.73306,0.157547 1.47909,0.24384 2.22738,0.256877 1.44034,0.02601 2.8721,-0.217666 4.22207,-0.718582 0.8027,-0.304926 1.56331,-0.711347 2.26291,-1.209165 1.10907,-0.788269 1.779,-2.05405 1.80574,-3.414327 0.032,-1.582009 -0.40065,-3.138045 -1.24543,-4.47638 -0.22343,-0.355674 -0.46448,-0.69971 -0.72288,-1.030811 z m 10.41952,0 h -8.70811 c 0.62124,1.344204 1.54156,2.52746 2.69128,3.462142 0.57189,0.464541 1.29495,0.702545 2.0321,0.666901 0.6345,-0.03108 1.24091,-0.264913 1.73049,-0.668401 1.08723,-0.895571 1.874,-2.1034 2.25424,-3.460642 z m 11.74765,0 h -10.0799 l 0.0101,0.179688 c 0.0838,0.646393 0.27871,1.271982 0.57788,1.851091 0.30916,0.599613 0.85055,1.04518 1.49941,1.231069 0.55159,0.158248 1.13024,0.203229 1.69978,0.133474 1.38324,-0.171352 2.72755,-0.570505 3.9802,-1.181656 0.9828,-0.47901 1.79116,-1.25261 2.31243,-2.213666 z m 6.28385,14.309707 V 36.341053 c -1.09593,-0.413624 -2.30506,-0.413624 -3.40021,0.0016 -0.95009,0.359908 -1.64546,1.187424 -1.83507,2.186158 -0.23249,1.222202 -0.32723,2.466342 -0.28355,3.710251 0.0203,0.548664 0.0305,1.095829 0.0318,1.644495 0.18874,0.701243 0.47327,1.373346 0.84585,1.997433 0.37361,0.625689 0.85989,1.177588 1.43333,1.62879 0.92305,0.709849 2.04375,1.11627 3.2079,1.162552 z m 0,14.986279 V 51.225232 c -0.6705,0.01777 -1.33533,0.113698 -1.98296,0.286187 -1.29315,0.342636 -2.26292,1.413993 -2.47624,2.735057 -0.18582,1.155448 -0.23231,2.329634 -0.14064,3.496919 0.22626,0.967924 0.52816,1.917444 0.90263,2.839289 0.41513,1.020873 1.12797,1.892669 2.04818,2.500884 0.4933,0.325332 1.05973,0.523526 1.64903,0.574942 z m 0,24.106489 c -1.27891,0.210396 -2.45477,0.827016 -3.35761,1.756395 -1.50812,1.555936 -2.70555,3.383585 -3.52859,5.388289 -0.42749,1.042246 -0.62938,2.16285 -0.59081,3.28909 0.62552,1.638835 1.81017,3.003377 3.34741,3.849667 0.63429,0.34254 1.31216,0.59802 2.0147,0.75833 0.69961,0.16058 1.4052,0.29555 2.1149,0.40622 z m -69.4581,-8.430904 v 7.355881 c 0.25104,0.427562 0.57768,0.805075 0.96522,1.114234 0.69081,0.548565 1.59372,0.750292 2.45174,0.546132 1.72153,-0.408423 3.23114,-1.436199 4.24145,-2.88807 0.93221,-1.340903 1.29639,-2.995701 1.01189,-4.603885 -0.15691,-0.888468 -0.43422,-1.750728 -0.82474,-2.563773 -0.40466,-0.841753 -0.97817,-1.58931 -1.68514,-2.196761 -0.98136,-0.843087 -2.38352,-0.984963 -3.51273,-0.352439 -1.01321,0.566438 -1.8145,1.447603 -2.28192,2.510255 -0.14961,0.349805 -0.27144,0.709814 -0.36577,1.078426 z m 0,-16.797691 v 7.478552 c 0.31049,-0.179954 0.5672,-0.438365 0.74451,-0.75056 0.69565,-1.225201 1.00585,-2.631525 0.88997,-4.036715 -0.0523,-0.631556 -0.24396,-1.244208 -0.56343,-1.792772 -0.18382,-0.316462 -0.39335,-0.61682 -0.62842,-0.898505 z m 0,-7.105472 c 0.38904,-0.357173 0.66616,-0.81728 0.7996,-1.327866 0.44141,-1.678305 0.54,-3.428965 0.28896,-5.147082 -0.048,-0.325799 -0.16563,-0.637693 -0.34686,-0.913677 -0.18301,-0.277782 -0.43991,-0.499349 -0.7417,-0.638557 z m 69.4565,18.406008 v -7.173626 c -1.20622,-0.371645 -2.42898,-0.688107 -3.66367,-0.950754 -1.572,-0.332499 -3.1992,-0.283184 -4.74802,0.146511 -0.59102,0.164083 -1.14546,0.439866 -1.63456,0.812845 -0.56467,0.431064 -0.96209,1.045149 -1.12344,1.736257 -0.15976,0.678537 -0.18506,1.380314 -0.0755,2.068389 1.09449,2.162184 3.04551,3.763866 5.38102,4.412895 1.57493,0.429663 3.251,0.282984 4.72734,-0.413892 0.39375,-0.185723 0.77277,-0.39912 1.13685,-0.638625 z"
           style="fill:none;stroke:#ff0000;stroke-width:0.06614583;stroke-linecap:butt;stroke-linejoin:bevel;stroke-miterlimit:4;stroke-dasharray:none;stroke-opacity:1"
           id="path4"
           inkscape:connector-curvature="0"
           sodipodi:nodetypes="ccccccccccccccccccccccccccccccccccccccccccccccccccccccccccccccccccccccccccccccccccccccccccccccccccccccccccccccccccccccccccccccccccccccccccccccccccccccccccscsccccssccccccccccccccccccccccccccccccccccccccccccccccccccccccccccccccccccccccccccccccccccccccccccccccccccccccccccccccccccccccccccccccccccccccccccccccccccccccccccccccccccccccccc"
           clip-path="url(#clipPath3163-5-7)" />
        <path
           style="fill:none;stroke:#ff0000;stroke-width:0.06614583;stroke-linecap:butt;stroke-linejoin:miter;stroke-miterlimit:4;stroke-dasharray:none;stroke-opacity:1"
           d="m 51.506477,85.610081 2.95529,-0.007"
           id="path3167"
           inkscape:connector-curvature="0" />
        <path
           style="fill:none;stroke:#ff0000;stroke-width:0.06614583;stroke-linecap:butt;stroke-linejoin:miter;stroke-miterlimit:4;stroke-dasharray:none;stroke-opacity:1"
           d="M 56.824118,85.579392 H 71.305327"
           id="path3169"
           inkscape:connector-curvature="0" />
        <path
           style="fill:none;stroke:#ff0000;stroke-width:0.06614583;stroke-linecap:butt;stroke-linejoin:miter;stroke-miterlimit:4;stroke-dasharray:none;stroke-opacity:1"
           d="m 89.366947,85.55211 5.52971,0.0517"
           id="path3173"
           inkscape:connector-curvature="0"
           sodipodi:nodetypes="cc" />
        <path
           style="fill:none;stroke:#ff0000;stroke-width:0.06614583;stroke-linecap:butt;stroke-linejoin:miter;stroke-miterlimit:4;stroke-dasharray:none;stroke-opacity:1"
           d="m 100.92922,85.579392 4.11049,0.0236"
           id="path3177"
           inkscape:connector-curvature="0" />
        <path
           style="fill:none;stroke:#ff0000;stroke-width:0.06614583;stroke-linecap:butt;stroke-linejoin:miter;stroke-miterlimit:4;stroke-dasharray:none;stroke-opacity:1"
           d="m 51.506477,85.610081 -0.0093,-6.87838"
           id="path3179"
           inkscape:connector-curvature="0"
           sodipodi:nodetypes="cc" />
        <path
           style="fill:none;stroke:#ff0000;stroke-width:0.06614583;stroke-linecap:butt;stroke-linejoin:miter;stroke-miterlimit:4;stroke-dasharray:none;stroke-opacity:1"
           d="m 51.506477,85.610081 2.95529,-0.007"
           id="path3167-7"
           inkscape:connector-curvature="0" />
        <path
           style="fill:none;stroke:#ff0000;stroke-width:0.06614583;stroke-linecap:butt;stroke-linejoin:miter;stroke-miterlimit:4;stroke-dasharray:none;stroke-opacity:1"
           d="M 56.824118,85.579392 H 71.305327"
           id="path3169-4"
           inkscape:connector-curvature="0" />
        <path
           style="fill:none;stroke:#ff0000;stroke-width:0.06614583;stroke-linecap:butt;stroke-linejoin:miter;stroke-miterlimit:4;stroke-dasharray:none;stroke-opacity:1"
           d="m 89.366947,85.55211 5.52971,0.0517"
           id="path3173-2"
           inkscape:connector-curvature="0"
           sodipodi:nodetypes="cc" />
        <path
           style="fill:none;stroke:#ff0000;stroke-width:0.06614583;stroke-linecap:butt;stroke-linejoin:miter;stroke-miterlimit:4;stroke-dasharray:none;stroke-opacity:1"
           d="m 100.92922,85.579392 4.11049,0.0236"
           id="path3177-5"
           inkscape:connector-curvature="0" />
        <path
           style="fill:none;fill-opacity:1;stroke:#ff0000;stroke-width:0.06614583;stroke-miterlimit:4;stroke-dasharray:none;stroke-dashoffset:0;stroke-opacity:1"
           id="path3297"
           sodipodi:type="arc"
           sodipodi:cx="52.206585"
           sodipodi:cy="85.176338"
           sodipodi:rx="2.2349701"
           sodipodi:ry="6.7960687"
           sodipodi:start="4.389394"
           sodipodi:end="0.062816081"
           d="m 51.497187,78.731701 a 2.2349701,6.7960687 0 0 1 2.071398,1.056307 2.2349701,6.7960687 0 0 1 0.868562,5.814952"
           sodipodi:open="true" />
        <path
           style="fill:none;fill-opacity:1;stroke:#ff0000;stroke-width:0.06614583;stroke-miterlimit:4;stroke-dasharray:none;stroke-dashoffset:0;stroke-opacity:1"
           id="path3313"
           sodipodi:type="arc"
           sodipodi:cx="63.794441"
           sodipodi:cy="85.219254"
           sodipodi:rx="6.3742328"
           sodipodi:ry="5.5141549"
           sodipodi:start="3.6365132"
           sodipodi:end="5.7290764"
           sodipodi:open="true"
           d="m 58.185075,82.600241 a 6.3742328,5.5141549 0 0 1 5.420754,-2.892728 6.3742328,5.5141549 0 0 1 5.609066,2.610271" />
        <path
           style="fill:none;stroke:#ff0000;stroke-width:0.06614583;stroke-linecap:butt;stroke-linejoin:miter;stroke-opacity:1;stroke-miterlimit:4;stroke-dasharray:none"
           d="m 58.185076,82.600241 -1.360959,2.97915 v 0"
           id="path3315"
           inkscape:connector-curvature="0" />
        <path
           style="fill:none;stroke:#ff0000;stroke-width:0.06614583;stroke-linecap:butt;stroke-linejoin:miter;stroke-opacity:1;stroke-miterlimit:4;stroke-dasharray:none"
           d="m 69.214893,82.317782 2.090433,3.261609"
           id="path3317"
           inkscape:connector-curvature="0" />
        <path
           style="fill:none;fill-opacity:1;stroke:#ff0000;stroke-width:0.06614583;stroke-miterlimit:4;stroke-dasharray:none;stroke-dashoffset:0;stroke-opacity:1"
           id="path3319"
           sodipodi:type="arc"
           sodipodi:cx="81.103363"
           sodipodi:cy="83.622932"
           sodipodi:rx="5.1374478"
           sodipodi:ry="4.5805202"
           sodipodi:start="3.6365157"
           sodipodi:end="5.7290782"
           sodipodi:open="true"
           d="m 76.582382,81.447351 a 5.1374478,4.5805202 0 0 1 4.368976,-2.402933 5.1374478,4.5805202 0 0 1 4.52074,2.168317" />
        <path
           style="fill:none;fill-opacity:1;stroke:#ff0000;stroke-width:0.06614583;stroke-miterlimit:4;stroke-dasharray:none;stroke-dashoffset:0;stroke-opacity:1"
           id="path3321"
           sodipodi:type="arc"
           sodipodi:cx="78.025665"
           sodipodi:cy="83.2351"
           sodipodi:rx="1.7916944"
           sodipodi:ry="3.0170953"
           sodipodi:start="2.8977805"
           sodipodi:end="3.7758013"
           d="m 76.286961,83.963438 a 1.7916944,3.0170953 0 0 1 0.295421,-2.516089"
           sodipodi:open="true" />
        <path
           style="fill:none;fill-opacity:1;stroke:#ff0000;stroke-width:0.06614583;stroke-miterlimit:4;stroke-dasharray:none;stroke-dashoffset:0;stroke-opacity:1"
           id="path3323"
           sodipodi:type="arc"
           sodipodi:cx="80.483994"
           sodipodi:cy="86.011993"
           sodipodi:rx="6.6945343"
           sodipodi:ry="7.1958122"
           sodipodi:start="5.5530747"
           sodipodi:end="6.221282"
           sodipodi:open="true"
           d="m 85.472095,81.212732 a 6.6945343,7.1958122 0 0 1 1.69361,4.354101" />
        <path
           style="fill:none;stroke:#ff0000;stroke-width:0.06614583;stroke-linecap:butt;stroke-linejoin:miter;stroke-opacity:1;stroke-miterlimit:4;stroke-dasharray:none"
           d="m 76.28696,83.963438 0.375028,1.576599"
           id="path3331"
           inkscape:connector-curvature="0" />
        <path
           style="fill:none;stroke:#ff0000;stroke-width:0.06614583;stroke-linecap:butt;stroke-linejoin:miter;stroke-opacity:1;stroke-miterlimit:4;stroke-dasharray:none"
           d="m 76.661988,85.540037 10.503715,0.02679"
           id="path3333"
           inkscape:connector-curvature="0" />
        <ellipse
           transform="rotate(90)"
           ry="6.8033729"
           rx="3.2007093"
           cy="-73.492149"
           cx="75.135521"
           id="path3357"
           style="fill:none;fill-opacity:1;stroke:#ff0000;stroke-width:0.0388179;stroke-miterlimit:4;stroke-dasharray:none;stroke-dashoffset:0;stroke-opacity:1" />
      </g>
    </g>
  </g>
</svg>
