<?xml version="1.0" encoding="UTF-8" standalone="no"?>
<svg
   xmlns:dc="http://purl.org/dc/elements/1.1/"
   xmlns:cc="http://creativecommons.org/ns#"
   xmlns:rdf="http://www.w3.org/1999/02/22-rdf-syntax-ns#"
   xmlns:svg="http://www.w3.org/2000/svg"
   xmlns="http://www.w3.org/2000/svg"
   xmlns:sodipodi="http://sodipodi.sourceforge.net/DTD/sodipodi-0.dtd"
   xmlns:inkscape="http://www.inkscape.org/namespaces/inkscape"
   version="1.1"
   width="595.27557"
   height="841.88977"
   id="svg6"
   viewBox="0 0 595.27557 841.88977"
   sodipodi:docname="Pattern-Rund.cdr.svg"
   inkscape:version="0.92.3 (2405546, 2018-03-11)">
  <metadata
     id="metadata12">
    <rdf:RDF>
      <cc:Work
         rdf:about="">
        <dc:format>image/svg+xml</dc:format>
        <dc:type
           rdf:resource="http://purl.org/dc/dcmitype/StillImage" />
        <dc:title></dc:title>
      </cc:Work>
    </rdf:RDF>
  </metadata>
  <defs
     id="defs10" />
  <sodipodi:namedview
     pagecolor="#ffffff"
     bordercolor="#666666"
     borderopacity="1"
     objecttolerance="10"
     gridtolerance="10"
     guidetolerance="10"
     inkscape:pageopacity="0"
     inkscape:pageshadow="2"
     inkscape:window-width="1853"
     inkscape:window-height="1025"
     id="namedview8"
     showgrid="false"
     inkscape:zoom="0.56064347"
     inkscape:cx="562.64626"
     inkscape:cy="487.02484"
     inkscape:window-x="1987"
     inkscape:window-y="27"
     inkscape:window-maximized="1"
     inkscape:current-layer="svg6" />
  <path
     d="m 45.8799,188.67 c 0.718,3.7307 3.5042,6.717 7.1742,7.6882 3.9262,1.0403 7.9103,1.8629 11.9279,2.4636 2.486,0.3736 4.9941,0.5964 7.5104,0.6706 2.198,0.0652 4.3971,-0.1003 6.5602,-0.4918 3.3956,-0.6182 6.1081,-3.17 6.9307,-6.5256 0.527,-2.1379 0.7617,-4.3407 0.7098,-6.5432 -0.0573,-2.3298 -0.6619,-4.6154 -1.7674,-6.6699 -0.8884,-1.6589 -2.4032,-2.8911 -4.206,-3.4308 -1.8718,-0.557 -3.8294,-0.7705 -5.7771,-0.6313 -4.5966,0.3314 -9.1944,0.5488 -13.7996,0.6625 -2.7519,0.0691 -5.4873,0.3775 -8.1839,0.9198 -1.9122,0.3858 -3.6663,1.3351 -5.0337,2.7235 -0.9616,0.9752 -1.6107,2.2082 -1.8672,3.5521 -0.3575,1.8508 -0.4162,3.7443 -0.1783,5.6123 z m 6.0117,160.3891 c 0.3268,1.5458 0.9317,3.0172 1.7804,4.3492 0.9108,1.4278 2.3902,2.401 4.0663,2.6688 1.6237,0.2654 3.2831,0.1389 4.8498,-0.3617 1.9069,-0.614 3.6726,-1.6018 5.1857,-2.9126 3.996,-3.4608 8.0011,-6.9154 12.0059,-10.3612 1.6761,-1.4405 3.1087,-3.1382 4.2488,-5.0281 1.7711,-2.9298 2.0943,-6.508 0.8796,-9.7078 -0.8317,-2.1855 -2.9126,-3.6354 -5.25,-3.6527 -1.4556,-0.009 -2.9038,0.2098 -4.2925,0.6574 -6.2734,2.0111 -12.2071,4.9541 -17.6012,8.729 -1.4014,0.9788 -2.66,2.1415 -3.7485,3.4565 -1.3714,1.6631 -2.1895,3.7109 -2.3349,5.8598 -0.142,2.1056 -0.072,4.2151 0.2106,6.3034 z M 54.8478,229.373 c 2.799,5.7569 7.7945,10.1404 13.8663,12.1646 4.3398,1.4414 9.1063,-0.1607 11.6841,-3.935 1.6109,-2.3596 2.5943,-5.0894 2.8514,-7.9365 0.254,-2.804 0.2095,-5.6324 -0.1304,-8.4282 -0.362,-2.9863 -1.302,-5.8731 -2.7689,-8.5026 -1.7028,-3.0515 -5.046,-4.8019 -8.5243,-4.4623 -4.0097,0.3921 -7.8135,1.9423 -10.952,4.4629 -3.1881,2.5637 -5.2687,6.251 -5.8087,10.3039 -0.2829,2.0988 -0.3524,4.2188 -0.2175,6.3332 z m 1.6779,36.5139 c 0.7676,2.7598 1.6089,5.4981 2.5273,8.2106 0.9227,2.7295 2.2638,5.2979 3.9787,7.6138 1.9812,2.6762 5.116,4.2495 8.4456,4.2319 5.6775,-0.0261 11.0064,-2.7252 14.3838,-7.2924 2.1697,-2.9384 3.2919,-6.5214 3.1873,-10.1741 -0.0609,-2.1371 -0.479,-4.2486 -1.2322,-6.247 -0.7617,-2.0157 -1.9769,-3.8226 -3.5524,-5.2889 -4.9326,-4.5794 -11.4712,-7.0228 -18.1976,-6.8046 -1.3972,0.0476 -2.7819,0.3093 -4.1011,0.7747 -1.3448,0.4745 -2.4988,1.3709 -3.295,2.5552 -0.9658,1.4366 -1.5891,3.0733 -1.8284,4.7866 -0.3483,2.527 -0.4541,5.083 -0.316,7.6342 z m 2.6589,123.8811 c 0.5391,3.5263 1.6052,6.952 3.16,10.1608 4.3881,9.0513 14.3005,14.0227 24.1784,12.1119 5.3986,-1.0451 10.1611,-4.1879 13.2378,-8.7463 4.8203,-7.1442 6.6793,-15.8732 5.1818,-24.3621 -1.3278,-7.5183 -5.5418,-14.2183 -11.7457,-18.6678 -4.6712,-3.3517 -10.487,-4.6885 -16.1512,-3.71 -5.9947,1.0332 -11.1623,4.7857 -13.9964,10.163 -3.7309,7.0733 -5.0848,15.1529 -3.8647,23.0505 z m 2.6589,195.1169 c 0.6225,2.6385 1.959,5.0545 3.8659,6.9832 2.8655,2.8992 7.3227,3.5042 10.8532,1.4711 3.034,-1.741 5.4465,-4.384 6.9089,-7.5617 1.493,-3.2479 1.946,-6.8785 1.2887,-10.3918 -0.5707,-3.043 -3.1043,-5.324 -6.1909,-5.5638 -3.9093,-0.3087 -7.8191,0.5406 -11.249,2.442 -2.8905,1.6016 -4.8478,4.4759 -5.2764,7.7494 -0.2138,1.6155 -0.279,3.2434 -0.2004,4.8716 z m 1.9896,39.0067 c 0.2699,1.3147 0.6659,2.5994 1.1795,3.8356 1.0276,2.4811 3.1345,4.3531 5.7206,5.076 3.3517,0.9357 6.8355,1.2934 10.3088,1.0533 3.8965,-0.2724 7.3221,-2.6685 8.903,-6.2385 1.8244,-4.1093 2.4642,-8.6368 1.8544,-13.0864 -0.4201,-3.0688 -1.5672,-5.9899 -3.3477,-8.5218 -2.2246,-3.1586 -6.3955,-4.2599 -9.8861,-2.605 -5.5114,2.6113 -9.9655,7.0172 -12.6351,12.4985 -1.2181,2.5007 -1.9316,5.2158 -2.0974,7.9883 z m 2.66,-131.474 c 0.2265,2.2439 0.6704,4.4623 1.3278,6.6221 1.8521,6.0774 6.1866,11.086 11.9384,13.7829 7.0381,3.3037 15.04,3.8831 22.4796,1.6239 4.1969,-1.2759 7.4358,-4.619 8.5779,-8.8543 1.4658,-5.4334 1.3238,-11.1716 -0.4059,-16.5265 -1.2152,-3.7571 -3.2304,-7.2051 -5.9049,-10.1087 -4.3951,-4.767 -9.3455,-8.9813 -14.752,-12.5597 -3.2052,-2.1243 -6.8936,-3.409 -10.7275,-3.7395 -3.0211,-0.2568 -5.9904,0.9227 -8.0101,3.1867 -1.6359,1.8369 -2.7598,4.07 -3.2607,6.4775 -1.3717,6.6047 -1.7983,13.3696 -1.2626,20.0956 z m 0.0258,-59.3659 c 0.1256,0.6046 0.3269,1.1908 0.6058,1.7435 1.3229,2.6153 3.191,4.9156 5.4845,6.7437 1.8771,1.4978 3.9401,2.7465 6.1429,3.7097 2.4786,1.0885 5.351,0.7307 7.4928,-0.9258 1.776,-1.3771 3.1731,-3.1797 4.0612,-5.2433 1.0622,-2.4684 1.6852,-5.1023 1.8377,-7.7882 0.2041,-3.5438 -1.0797,-7.0137 -3.5481,-9.5646 -3.6436,-3.7658 -8.9152,-5.4681 -14.0675,-4.5406 -4.3259,0.7838 -7.6391,4.2713 -8.1921,8.6327 -0.3044,2.4049 -0.2435,4.8452 0.1828,7.2329 z m 1.302,100.0663 c 0.392,1.4497 0.7534,2.9081 1.0794,4.375 0.6837,3.087 1.5891,6.1226 2.7028,9.0859 0.5579,1.4894 1.3374,2.89 2.3083,4.1534 1.7892,2.338 4.468,3.8301 7.4004,4.1224 2.0727,0.2049 4.1635,0.1655 6.23,-0.1219 7.6711,-1.1364 14.7725,-4.7013 20.2663,-10.1741 2.1762,-2.166 3.6125,-4.9558 4.1216,-7.9801 0.5048,-3.0297 0.1559,-6.1336 -1.01,-8.9754 -0.6438,-1.5669 -1.4451,-3.0659 -2.3896,-4.4693 -1.372,-2.0356 -3.4682,-3.4705 -5.8641,-4.0119 -2.1509,-0.4836 -4.3713,-0.5925 -6.561,-0.3215 -4.1661,0.5216 -8.3605,0.783 -12.5598,0.7827 -3.2167,0 -6.4077,0.5009 -9.4654,1.4933 -1.6968,0.5488 -3.2199,1.5321 -4.4172,2.8513 -0.9315,1.029 -1.5543,2.3032 -1.7893,3.6701 -0.3141,1.8246 -0.3316,3.6873 -0.0524,5.5201 z M 79.1178,299.7893 c 0.5834,1.7983 1.2847,3.5546 2.0945,5.2656 1.1452,2.4027 2.3508,4.7756 3.6131,7.1207 2.0942,3.8846 4.7973,7.4041 8.0101,10.4278 1.9083,1.7983 4.5017,2.6773 7.1096,2.4123 2.9426,-0.2968 5.5153,-2.0991 6.7986,-4.7631 1.237,-2.5688 1.5505,-5.4814 0.8852,-8.2545 -0.5887,-2.4593 -1.6415,-4.7812 -3.1002,-6.8476 -0.8311,-1.1801 -1.6543,-2.3639 -2.4684,-3.557 -0.7968,-1.1749 -1.6872,-2.2813 -2.6552,-3.3131 -0.9275,-0.9884 -1.8241,-2.0069 -2.6861,-3.0518 -0.7753,-0.9399 -1.6025,-1.8346 -2.4857,-2.6767 -1.2368,-1.1889 -2.3987,-2.4557 -3.4745,-3.7922 -1.4757,0.1482 -2.9596,0.2392 -4.4404,0.2744 -1.8499,0.0433 -3.5785,0.9105 -4.7186,2.3678 -1.8589,2.3813 -2.7473,5.3767 -2.482,8.3874 z m 9.3121,-59.3787 c 0.087,2.9647 0.6843,5.8898 1.7722,8.6504 0.9366,2.3851 2.725,4.3353 5.0151,5.4845 2.5197,1.2586 5.4677,1.315 8.0317,0.1485 3.1254,-1.4235 6.116,-3.1257 8.9373,-5.0845 3.9662,-2.7515 8.1153,-5.2372 12.4121,-7.4358 7.9497,-4.0708 13.7919,-11.3196 16.0733,-19.9528 1.667,-6.3074 -0.1333,-13.0184 -4.7373,-17.6389 -1.6373,-1.6415 -3.7519,-2.7218 -6.0418,-3.0869 -0.4271,-0.07 -0.8625,-0.1032 -1.2977,-0.1003 -2.7734,0.0235 -5.498,0.7443 -7.9168,2.1027 -3.1581,1.7674 -6.2096,3.7264 -9.1353,5.8595 -5.9428,4.3971 -11.7765,8.9422 -17.4968,13.6301 -3.3304,2.7303 -5.4026,6.6963 -5.7419,10.9891 -0.17,2.1447 -0.1267,4.2996 0.1259,6.4344 z M 91.101,195.465 c 0.1893,1.5066 0.597,2.9826 1.2126,4.3755 2.4982,5.6418 8.8413,8.4895 14.7144,6.5963 5.0414,-1.62 9.5715,-4.5239 13.1431,-8.4331 2.7383,-2.9957 4.0833,-7.005 3.7004,-11.0449 -0.1392,-1.4888 -0.3963,-2.9648 -0.7747,-4.4099 -0.7234,-2.7992 -2.1161,-5.381 -4.053,-7.5274 -2.0512,-2.2725 -4.7585,-3.8528 -7.7494,-4.5229 -2.969,-0.6619 -6.0559,-0.5398 -8.9643,0.3568 -2.0545,0.6356 -3.8871,1.8372 -5.2852,3.4739 -1.9885,2.3204 -3.4304,5.0547 -4.2307,8.0016 -0.4093,1.5064 -0.784,3.0257 -1.1236,4.5499 -0.6265,2.816 -0.8266,5.7073 -0.5896,8.5842 z m 0.6602,382.6281 c 0.0997,2.5518 0.8957,5.0287 2.2983,7.162 2.6549,4.0357 7.727,5.72 12.2675,4.0703 4.3753,-1.5931 8.2066,-4.3926 11.0534,-8.0754 1.5194,-1.9655 2.5999,-4.2275 3.1822,-6.639 1.0845,-4.5193 0.682,-9.2647 -1.1537,-13.5351 -1.2189,-2.8299 -3.761,-4.8671 -6.7873,-5.4377 -3.6958,-0.6956 -7.5135,-0.2869 -10.9746,1.1727 -3.5175,1.4831 -6.3298,4.2522 -7.8664,7.7448 -1.8717,4.252 -2.5685,8.9237 -2.0194,13.5374 z m 2.3198,-233.3395 0.3683,6.0097 c 0.3364,1.1299 0.894,2.179 1.6443,3.085 1.0826,1.3113 2.6544,2.1228 4.3524,2.2373 1.6313,0.1134 3.2689,0.0607 4.8886,-0.157 6.4735,-0.9748 12.7032,-3.1516 18.3722,-6.4213 1.9409,-1.1189 3.4818,-2.8165 4.4093,-4.858 0.2437,-0.5315 0.4263,-1.0843 0.5453,-1.6543 0.9091,-4.2753 -0.136,-8.729 -2.8527,-12.1553 -2.721,-3.4282 -7.1833,-4.9626 -11.4364,-3.9308 -1.8851,0.4717 -3.6527,1.3246 -5.1939,2.5073 -2.0464,1.5721 -3.9924,3.2743 -5.8204,5.0961 -3.248,3.2714 -6.3431,6.6889 -9.277,10.2413 z m 1.0052,111.168 c 0.7929,4.3285 2.4423,8.4557 4.8543,12.1388 1.8238,2.7862 4.5494,4.8583 7.723,5.8725 2.2,0.7036 4.5888,0.5403 6.6736,-0.4566 1.7113,-0.8218 3.2131,-2.0246 4.3798,-3.5224 2.0464,-2.6249 3.8926,-5.3983 5.5242,-8.3018 3.7137,-6.7263 6.8746,-13.7441 9.4564,-20.9835 0.6449,-1.8153 1.0664,-3.6961 1.2577,-5.6114 0.1304,-1.3587 0.0133,-2.7295 -0.3484,-4.0434 -0.3654,-1.3161 -1.0533,-2.5222 -2.0024,-3.5056 -3.725,-3.8537 -9.695,-4.4186 -14.0658,-1.3192 -2.4902,1.7674 -4.8951,3.6436 -7.2096,5.6293 -2.181,1.8717 -4.3662,3.7352 -6.5591,5.5896 -2.1951,1.8545 -4.2763,3.8396 -6.2274,5.9511 -3.1295,3.3738 -4.4184,8.0606 -3.4563,12.5626 z m 8.3049,145.0539 c -1.2347,1.0593 -2.2662,2.334 -3.0458,3.7653 -1.0794,1.9763 -1.5749,4.221 -1.4278,6.4695 0.1395,2.207 0.2565,4.4141 0.3467,6.6203 0.0363,0.911 -0.0162,1.8292 -0.1616,2.7309 0.2458,1.1798 0.7248,2.3028 1.404,3.2998 1.6994,2.486 4.2622,4.2446 7.1915,4.9337 2.9103,0.6868 5.9644,-0.2013 8.0498,-2.3454 2.8559,-2.9367 4.1137,-7.0722 3.3693,-11.1036 -0.4745,-2.5685 -1.5712,-4.9807 -3.1952,-7.0308 -2.0378,-2.5687 -4.2234,-5.0198 -6.5475,-7.3397 z m -4.6522,-324.9408 0.3637,7.7057 c 0.559,1.6364 1.3867,3.1654 2.4528,4.5275 1.6586,2.1243 4.1621,3.4129 6.857,3.5305 2.2729,0.1007 4.5491,-0.0218 6.8004,-0.3659 3.0251,-0.4655 5.9898,-1.2623 8.8412,-2.3814 4.5712,-1.7938 7.8497,-5.8725 8.6156,-10.7223 0.4527,-2.8582 0.5488,-5.7595 0.2835,-8.6412 -0.3061,-3.3525 -1.3501,-6.6005 -3.0566,-9.5037 -1.9871,-3.3914 -5.7549,-5.3201 -9.667,-4.9501 -4.7208,0.4439 -9.0442,2.8213 -11.9497,6.5738 -2.41,3.1085 -4.6213,6.3646 -6.626,9.7481 -0.9077,1.5355 -1.8791,3.0291 -2.9149,4.479 z m 7.0132,134.9609 c 0.4924,1.593 1.3238,3.0605 2.4339,4.3064 1.5539,1.7492 3.8965,2.5764 6.2044,2.1857 2.634,-0.445 5.1273,-1.5029 7.274,-3.092 3.0079,-2.2201 5.3405,-5.2288 6.7385,-8.6944 1.3935,-3.4518 1.9378,-7.1858 1.5891,-10.891 -1.2577,-2.6524 -3.2298,-4.8986 -5.6982,-6.4916 -4.1062,-2.647 -9.534,-1.8547 -12.7037,1.8632 -2.124,2.4868 -3.6955,5.3949 -4.6117,8.5326 -0.6078,2.0724 -1.0466,4.1893 -1.3133,6.334 -0.25,1.9766 -0.2217,3.9784 0.087,5.9471 z m 11.302,108.5879 c 2.0849,5.0947 5.5982,9.4768 10.1175,12.6161 5.106,3.5479 10.6874,6.3474 16.5821,8.3197 4.5853,1.5364 9.4379,2.0982 14.2571,1.6588 4.4841,-0.4093 8.877,-1.4978 13.0346,-3.2309 1.5973,-0.6656 3.0211,-1.6892 4.1615,-2.9911 1.7413,-1.9976 2.3689,-4.7273 1.6716,-7.2797 -0.6656,-2.4366 -1.906,-4.6788 -3.6179,-6.5341 -1.7626,-1.9148 -3.8307,-3.5215 -6.1166,-4.7582 -5.398,-2.9203 -11.0627,-5.3062 -16.9259,-7.1261 -2.3723,-0.7367 -4.8039,-1.2798 -7.2658,-1.6239 -6.5732,-0.8402 -13.227,-0.7878 -19.7864,0.1567 -1.4896,0.2138 -2.8925,0.8365 -4.0527,1.7983 -1.1015,0.91 -1.8269,2.194 -2.0378,3.6094 -0.2653,1.7847 -0.2735,3.5969 -0.0213,5.385 z m 1.3102,-150.2025 c 0.6795,2.3111 1.5324,4.5666 2.5512,6.7461 1.0276,2.2048 2.5291,4.1556 4.3926,5.7181 4.3489,3.6476 9.2469,6.5775 14.5182,8.689 1.2671,0.5094 2.5801,0.8924 3.9226,1.1435 0.8849,0.167 1.794,0.1976 2.6906,0.089 1.9851,-0.2355 3.757,-1.358 4.8203,-3.0523 1.0264,-1.6282 1.671,-3.469 1.8885,-5.385 0.4096,-3.666 0,-7.3791 -1.2062,-10.866 -1.1934,-3.4566 -2.7771,-6.7649 -4.7231,-9.8609 -1.5429,-2.4608 -3.5611,-4.5882 -5.938,-6.2598 -1.4281,-1.0014 -3.0742,-1.6435 -4.8059,-1.8683 -4.5977,-0.6004 -9.2602,0.3702 -13.2352,2.7604 -2.4639,1.4848 -4.1788,3.9484 -4.7103,6.774 -0.3305,1.7719 -0.3875,3.5832 -0.1653,5.3722 z m -0.003,-56.8514 c 0.9697,4.5799 3.2151,8.7897 6.4769,12.1479 3.1994,3.2981 6.6209,6.3669 10.243,9.1964 2.6257,2.05 5.4638,3.8183 8.4591,5.2727 3.1737,1.537 6.8961,1.4239 9.9678,-0.3095 3.2017,-1.8045 6.3357,-3.7261 9.396,-5.7589 2.9605,-1.9641 4.9286,-5.1071 5.4076,-8.6286 0.4436,-3.2789 -1.063,-6.5138 -3.8608,-8.2846 -2.0299,-1.2846 -4.0799,-2.5429 -6.1438,-3.7749 -2.1943,-1.3101 -4.3016,-2.7734 -6.3037,-4.3662 -2.0026,-1.5936 -4.0691,-3.1045 -6.1951,-4.528 -1.4896,-0.997 -3.0691,-1.8547 -4.7177,-2.5637 -2.2391,-0.9638 -4.6287,-1.5284 -7.0625,-1.6679 -2.425,-0.1392 -4.8557,0.0179 -7.2439,0.4572 -3.5351,0.6577 -6.4517,3.1448 -7.6581,6.5348 -0.718,2.0072 -0.9763,4.1487 -0.7648,6.2733 z m 2.0185,179.0615 c 0.7929,2.1458 1.8899,4.166 3.2565,6.0032 2.4364,3.2825 6.8349,4.4008 10.5401,2.677 2.137,-0.9927 4.1048,-2.3202 5.8243,-3.9348 5.1894,-4.8617 9.9329,-10.1749 14.1792,-15.8822 3.6354,-4.8886 6.0777,-10.5608 7.1268,-16.5643 1.0667,-6.0865 -1.4238,-12.2422 -6.4261,-15.8686 -1.0862,-0.7877 -2.2462,-1.4624 -3.469,-2.0157 -3.5706,-1.6104 -7.7582,-0.936 -10.6404,1.7195 -2.5594,2.3553 -4.8626,4.972 -6.8826,7.8063 -3.6518,5.1324 -6.7651,10.6223 -9.2942,16.3899 -1.5372,3.4966 -2.778,7.1139 -3.7091,10.8188 -0.7285,2.8907 -0.9015,5.8943 -0.5055,8.8509 z m 5.986,69.5715 c 0.4042,1.1673 0.9312,2.2901 1.5718,3.3457 1.3756,2.2621 3.8004,3.6766 6.4477,3.7554 1.1358,0.0343 2.268,-0.0567 3.3865,-0.2656 2.8735,-0.54 5.6118,-1.6416 8.0583,-3.2434 4.5017,-2.9517 6.4647,-8.5504 4.7801,-13.661 -0.3611,-1.0976 -0.8229,-2.1563 -1.3799,-3.1694 -1.5891,-2.8866 -4.7455,-4.5448 -8.0235,-4.2101 -4.2006,0.4269 -8.206,1.9591 -11.6149,4.4453 -1.2107,0.8833 -2.1464,2.0937 -2.6975,3.4909 -0.4889,1.2416 -0.7588,2.5563 -0.794,3.89 -0.0524,1.8791 0.0352,3.7593 0.2654,5.6222 z m 1.9766,51.7363 c 1.0885,4.0476 2.9735,7.8366 5.5462,11.1495 1.9151,2.4639 3.9399,4.837 6.0687,7.1181 0.9488,1.0139 1.8326,2.0897 2.6431,3.217 1.1355,1.5846 2.2677,3.1694 3.3933,4.7622 1.1078,1.5636 3.157,2.1467 4.9218,1.398 2.5245,-1.0751 4.4838,-3.1603 5.3935,-5.7509 0.6616,-1.8935 1.3362,-3.7831 2.0197,-5.6724 0.5099,-1.4063 1.0494,-2.7995 1.6197,-4.1836 1.2064,-2.9342 1.8113,-6.0778 1.775,-9.2512 -0.0207,-1.6455 -0.2761,-3.2783 -0.7565,-4.8478 -0.927,-3.0104 -2.9291,-5.5704 -5.6285,-7.1895 -1.9899,-1.1971 -4.1014,-2.1824 -6.2955,-2.9472 -3.6175,-1.1925 -7.3136,-2.1243 -11.0661,-2.7816 -2.5991,-0.4536 -5.2637,0.2477 -7.301,1.9199 -1.5148,1.2492 -2.3941,3.1067 -2.3938,5.0686 0.004,1.868 0.0604,3.7366 0.1735,5.6013 0.0482,0.7968 0.009,1.5978 -0.1131,2.3896 z m 9.3291,-194.2713 c 0.2574,0.9442 0.5578,1.8714 0.9056,2.7858 2.7564,7.236 7.401,13.6001 13.4567,18.4278 4.1573,3.3177 8.4934,6.4043 12.9866,9.2514 1.3028,0.8229 2.7119,1.4675 4.1879,1.916 3.3086,1.0051 6.8916,-0.0615 9.1072,-2.7173 2.0809,-2.4903 3.3474,-5.5508 3.6312,-8.782 0.2698,-3.0683 -0.0828,-6.1589 -1.0367,-9.0859 -2.0157,-6.1759 -4.2678,-12.2692 -6.7561,-18.2696 -1.1364,-2.7428 -2.5951,-5.3419 -4.3452,-7.7409 -1.8238,-2.5075 -4.0703,-4.6797 -6.6385,-6.417 -3.4526,-2.3375 -7.7969,-2.9251 -11.7459,-1.5871 -3.3131,1.1259 -6.3167,3.0106 -8.7724,5.5097 -3.5608,3.6263 -5.4592,8.5629 -5.2409,13.6391 0.0436,1.0276 0.1304,2.0509 0.2605,3.07 z m 2.656,-130.6559 c 0.8966,2.7904 2.2547,5.4068 4.0181,7.7448 0.8536,1.1318 1.8375,2.1594 2.9305,3.0605 2.886,2.3766 6.1569,4.2404 9.6727,5.5148 3.6286,1.3153 7.5319,1.6767 11.3425,1.0463 3.6595,-0.6012 6.8377,-2.8562 8.6142,-6.1126 1.4114,-2.5864 2.111,-5.5029 2.024,-8.4504 -0.0397,-1.3844 -0.1959,-2.7643 -0.4573,-4.1272 -0.7486,-3.8421 -3.5118,-6.9781 -7.2275,-8.1973 -4.5334,-1.4887 -9.2849,-2.194 -14.0561,-2.0763 -3.0782,0.0697 -6.1563,0.1176 -9.2342,0.1304 -0.9008,0.005 -1.7974,0.0258 -2.6946,0.0612 -2.4554,0.1006 -4.4867,1.9499 -4.8143,4.3883 -0.3136,2.3244 -0.353,4.6797 -0.118,7.0175 z m 1.3017,-41.6237 c 0.1653,5.1506 1.5103,10.192 3.9268,14.7436 1.0449,1.961 2.547,3.6416 4.3841,4.8948 1.9851,1.3547 4.6528,1.1191 6.3689,-0.5658 2.0114,-1.976 3.6306,-4.3095 4.7761,-6.8867 4.1485,-9.3379 3.6218,-20.0872 -1.4327,-28.9727 -1.4374,-2.5336 -3.4914,-4.6624 -5.968,-6.1991 -2.1731,-1.345 -4.9983,-0.9187 -6.6787,1.0106 -1.641,1.8845 -2.8905,4.0717 -3.6783,6.4426 -1.6679,4.998 -2.2464,10.2917 -1.6982,15.5327 z m 0.6922,340.2643 c 0.3875,1.0679 0.9578,2.0642 1.6849,2.9387 1.3065,1.5681 3.2142,2.5172 5.2552,2.6085 5.5355,0.2522 11.0523,-0.7532 16.1402,-2.9424 1.8691,-0.828 3.615,-1.9074 5.1911,-3.2085 1.1446,-0.9454 2.1401,-2.0554 2.9514,-3.3001 2.8862,-4.4365 4.6148,-9.5253 5.0196,-14.8017 0.0915,-1.2016 -0.0434,-2.4111 -0.396,-3.5614 -0.6897,-2.251 -2.5827,-3.9226 -4.9065,-4.3271 -3.8313,-0.6665 -7.7666,-0.4227 -11.4931,0.7052 -4.4101,1.3411 -8.4977,3.5785 -12.0027,6.5736 -3.5564,3.0345 -6.0653,7.1093 -7.1827,11.6495 -0.6137,2.5081 -0.705,5.1197 -0.2614,7.6657 z m 10.6223,-89.9591 c 0.248,1.4025 0.6965,2.7649 1.3275,4.0442 0.6397,1.2897 1.5936,2.3995 2.7742,3.2261 1.9673,1.3719 4.2443,2.2385 6.6254,2.5282 1.9897,0.2409 4.0054,0.1669 5.9715,-0.2163 5.2906,-1.0358 10.4318,-2.7292 15.2994,-5.0477 0.6381,-0.3033 1.2444,-0.6723 1.8068,-1.0987 2.1025,-1.5891 3.191,-4.1842 2.8469,-6.7957 -0.2353,-1.7938 -0.7271,-3.5442 -1.4587,-5.1996 -2.098,-4.7617 -5.1849,-9.023 -9.0596,-12.4974 -2.1197,-1.9023 -4.9501,-2.7998 -7.7791,-2.4639 -1.7067,0.2047 -3.3519,0.7435 -4.8498,1.5846 -4.6749,2.6379 -8.6301,6.3731 -11.5279,10.8879 -0.7832,1.2186 -1.3363,2.5681 -1.6461,3.9832 -0.5,2.3207 -0.6114,4.7058 -0.3305,7.0651 z m -0.005,-134.9037 c 0.6573,4.4221 2.3249,8.6315 4.8716,12.303 0.9445,1.3626 2.1121,2.5557 3.4565,3.5302 2.9603,2.1374 6.84,2.5079 10.1501,0.9664 1.5786,-0.7353 3.0276,-1.7241 4.2862,-2.9257 3.1907,-3.0319 5.6943,-6.7087 7.3443,-10.7872 1.7785,-4.3968 2.6728,-9.0972 2.6379,-13.8359 -0.0258,-2.7771 -0.5309,-5.5279 -1.4972,-8.1275 -1.0063,-2.7145 -3.1828,-4.828 -5.921,-5.7634 -1.5931,-0.5406 -3.2735,-0.758 -4.9493,-0.6404 -3.8483,0.2744 -7.5541,1.5412 -10.7626,3.6828 -7.0869,4.7591 -10.8264,13.1477 -9.6165,21.5977 z m 10.6622,-144.1944 c 1.5624,4.9932 4.2267,9.5683 7.7964,13.3872 4.2622,4.5618 8.803,8.85 13.5958,12.846 3.8574,3.2131 8.0325,6.0279 12.4617,8.394 1.83,0.9791 3.8287,1.5973 5.8881,1.8229 1.7586,0.1925 3.5351,-0.1471 5.0981,-0.97 1.55,-0.8152 2.912,-1.9414 4.0048,-3.3041 0.214,-3.757 -0.4309,-7.5095 -1.8887,-10.9751 -1.8553,-4.4141 -3.7749,-8.7982 -5.7609,-13.1519 -4.5399,-9.9431 -10.826,-18.9817 -18.5706,-26.6911 -1.5766,-1.5712 -3.5855,-2.6333 -5.7688,-3.056 -1.8981,-0.3654 -3.8613,-0.161 -5.6423,0.5922 -5.4148,2.2943 -9.4377,6.9922 -10.8641,12.6949 -0.6897,2.751 -0.8073,5.6118 -0.3495,8.411 z m 3.9696,48.3182 c 0.2438,1.2847 0.6285,2.5382 1.15,3.7375 0.8876,2.0353 2.6898,3.526 4.8535,4.0122 3.7715,0.8467 7.7088,0.5357 11.3001,-0.8904 2.7396,-1.0905 4.6729,-3.5765 5.0555,-6.5018 0.3181,-2.4489 0.0355,-4.9397 -0.8223,-7.2573 -1.0842,-2.9302 -3.9005,-4.8543 -7.0262,-4.8019 -3.6275,0.0652 -7.2136,0.8096 -10.5662,2.2025 -2.0196,0.8399 -3.4545,2.6686 -3.7876,4.8286 -0.2393,1.5449 -0.2917,3.1121 -0.1568,4.6706 z m 8.6463,134.9093 c 0.6789,4.1919 1.813,8.2933 3.3871,12.2375 1.1143,2.7901 2.6294,5.4025 4.5011,7.7556 2.4166,3.0364 6.3729,4.3945 10.1435,3.4761 6.3734,-1.556 11.3845,-6.4633 13.0691,-12.8033 1.6368,-6.1687 0.5619,-12.734 -2.965,-18.0538 -3.9645,-5.9947 -10.1996,-10.1044 -17.2735,-11.3848 -0.6928,-0.1259 -1.3938,-0.1828 -2.0987,-0.1692 -3.1527,0.0479 -5.9834,1.9369 -7.2369,4.8305 -0.7999,1.8431 -1.2963,3.8024 -1.4658,5.8051 -0.2338,2.7637 -0.2526,5.542 -0.0609,8.3063 z m 1.9978,209.5611 c -0.0173,0.4139 0.0309,0.8286 0.1429,1.228 0.5145,1.828 1.5205,3.4784 2.9049,4.7755 0.6965,0.6491 1.4018,1.2889 2.1116,1.9196 0.7398,0.6537 1.5539,1.2192 2.4287,1.6762 1.3496,0.7055 2.7391,1.33 4.1663,1.8677 2.9024,1.093 6.1646,0.4791 8.4737,-1.5905 3.6938,-3.3112 5.392,-8.3047 4.4866,-13.1808 -0.2962,-1.5931 -0.9139,-3.1085 -1.8133,-4.4578 -2.2354,-3.348 -5.7138,-5.6613 -9.6667,-6.4253 -4.053,-0.784 -8.2196,0.5616 -11.0489,3.5663 -1.1687,1.2438 -1.9593,2.7898 -2.2771,4.4657 -0.3832,2.0372 -0.3523,4.1315 0.0913,6.1554 z m 2.6603,-145.0871 c 0.3223,1.6285 0.8966,3.1955 1.7065,4.6452 0.8356,1.4978 1.821,2.9038 2.9432,4.1992 1.4233,1.6362 3.191,2.9307 5.1849,3.7848 2.0899,0.8969 4.4906,0.6803 6.3864,-0.5785 2.0676,-1.3669 3.8529,-3.1218 5.2591,-5.1613 5.0718,-7.3543 9.5341,-15.1042 13.3498,-23.1798 1.4343,-3.1521 2.8361,-6.3207 4.212,-9.4949 1.3938,-3.2259 2.8165,-6.4386 4.2616,-9.6432 0.7047,-1.5231 1.3844,-3.06 2.0378,-4.6052 0.6052,-1.4326 0.9882,-2.9435 1.1362,-4.4886 0.17,-1.7331 -0.1959,-3.475 -1.0426,-4.9978 -0.8343,-1.4973 -1.9267,-2.838 -3.2239,-3.9574 -2.4426,-0.3997 -4.9371,0.2865 -6.8352,1.8748 -1.815,1.5194 -3.4868,3.1969 -5.0031,5.0167 -0.4776,0.5746 -0.9607,1.1447 -1.444,1.711 -1.946,2.2198 -3.9271,4.4127 -5.9386,6.5736 -1.9936,2.1376 -3.9571,4.3055 -5.8898,6.4995 -5.5771,6.5177 -10.5001,13.5698 -14.6931,21.0558 -1.8334,3.2712 -2.6719,7.0064 -2.4072,10.7461 z m 0.3178,-145.1046 c 1.0797,1.3586 2.5209,2.3916 4.1573,2.9783 0.7143,0.2568 1.476,0.3478 2.2292,0.2699 2.3504,-0.2463 4.5538,-1.2495 6.2804,-2.8605 1.8825,-1.7546 3.3712,-3.8919 4.3682,-6.2648 2.2547,-5.3717 4.6497,-10.6832 7.1787,-15.9333 1.2362,-2.5645 2.2765,-5.2239 3.1085,-7.9489 1.0579,-3.4704 1.5758,-7.0832 1.5412,-10.7098 -0.0524,-4.7974 -3.4566,-8.8983 -8.1629,-9.8255 -0.9491,-0.1874 -1.9157,-0.2834 -2.8863,-0.2962 -2.806,-0.0261 -5.3985,1.4842 -6.7563,3.9399 -1.0058,1.8238 -1.7765,3.7695 -2.2856,5.7897 -1.2586,4.9865 -2.6734,9.9346 -4.2449,14.8323 -0.3438,1.08 -0.6834,2.1634 -1.0185,3.2431 -2.2768,7.3834 -3.4568,15.0585 -3.509,22.7858 z m 2.3598,255.4296 c 0.5179,1.783 1.3102,3.4699 2.3551,5.0049 2.6818,3.9415 8.041,4.9736 11.9934,2.3045 1.8462,-1.2498 3.4265,-2.8471 4.6587,-4.7061 4.0612,-6.1472 7.3528,-12.7683 9.7994,-19.7197 0.9139,-2.5906 1.0142,-5.3912 0.2914,-8.0416 -0.7835,-2.8676 -2.619,-5.3334 -5.1412,-6.9052 -1.4074,-0.8793 -2.9821,-1.4599 -4.6236,-1.7062 -1.6804,-0.2529 -3.3954,0.1154 -4.8229,1.0361 -2.0942,1.3541 -3.8611,3.16 -5.1684,5.2851 -2.5637,4.1565 -4.9365,8.424 -7.1172,12.7948 -1.1237,2.247 -1.8462,4.6738 -2.1427,7.1697 -0.2957,2.4859 -0.322,4.9938 -0.082,7.4837 z m 2.6382,-49.2375 c 0.4482,3.962 3.1975,7.2811 7.0096,8.4543 5.9592,1.8289 12.3757,-0.7662 15.3802,-6.2254 1.5897,-2.8902 2.6569,-6.0424 3.1515,-9.303 0.6052,-4.0312 0.5412,-8.1321 -0.1961,-12.1417 -0.4176,-2.2652 -1.2189,-4.4441 -2.3678,-6.4389 -1.2331,-2.1424 -3.5708,-3.4044 -6.0423,-3.2516 -1.4023,0.0836 -2.7783,0.4385 -4.0493,1.0403 -3.1694,1.4976 -5.8859,3.8004 -7.8798,6.6869 -1.8371,2.6595 -3.1084,5.6676 -3.7391,8.837 -0.8102,4.0663 -1.232,8.1978 -1.2669,12.3421 z m 3.3429,-157.7778 c 0.2007,0.8538 0.4706,1.6894 0.8136,2.4953 1.1937,2.8248 3.8883,4.7146 6.9488,4.8711 2.7907,0.1437 5.5418,-0.6968 7.7755,-2.3726 2.7382,-2.0548 5.2633,-4.3792 7.5356,-6.9344 3.4568,-3.975 6.6798,-8.1459 9.6562,-12.4903 3.1014,-4.523 5.9944,-9.186 8.6678,-13.9745 2.6419,-4.8498 5.0927,-9.796 7.3485,-14.8366 1.4015,-3.1217 2.6079,-6.3257 3.6134,-9.5955 1.5287,-4.9621 0.7701,-10.3434 -2.0767,-14.688 -2.6164,-3.9923 -6.3522,-7.1226 -10.7447,-8.9949 -2.5118,-1.0707 -5.3513,-1.0491 -7.8443,0.0612 -1.768,0.7883 -3.3177,1.9814 -4.5307,3.4872 -2.1084,2.6212 -4.0152,5.4031 -5.705,8.3151 -2.7425,4.7455 -5.1843,9.6563 -7.3091,14.7062 -2.2011,5.3762 -4.1706,10.8411 -5.9029,16.3865 -0.8359,2.7422 -1.6548,5.4882 -2.4562,8.2392 -0.8045,2.7573 -1.6276,5.5088 -2.4678,8.2553 -0.8666,2.7788 -1.6889,5.5727 -2.4639,8.3792 -0.7829,2.8268 -1.0712,5.7657 -0.8581,8.6905 z M 202.138,200.524 c 1.1534,7.0438 3.0453,13.9444 5.6412,20.5917 1.0406,2.6685 2.4687,5.1721 4.2407,7.4231 2.018,2.5727 4.7148,4.5314 7.7853,5.6548 5.2835,1.9287 11.1303,-0.7532 13.1015,-6.0205 1.2546,-3.344 1.8989,-6.8873 1.9034,-10.4584 0.009,-7.6091 -1.3626,-15.1535 -4.0529,-22.2707 -0.9536,-2.5299 -2.2366,-4.9241 -3.8121,-7.1184 -1.0939,-1.5236 -2.4349,-2.851 -3.9761,-3.9225 -2.7346,-1.9066 -6.2178,-2.3721 -9.3566,-1.2493 -2.6286,0.9408 -5.023,2.4293 -7.026,4.3708 -3.4855,3.3698 -5.1369,8.202 -4.4484,12.9994 z m 9.3407,185.8532 c 1.9083,3.3999 3.9583,6.717 6.1439,9.9468 1.6457,2.4296 3.7527,4.5102 6.2039,6.1251 1.9561,1.2849 4.1836,2.0991 6.5128,2.3689 4.0442,0.4745 7.8792,-1.8898 9.2682,-5.7192 1.1319,-3.1184 1.5891,-6.4445 1.3411,-9.7571 -0.1542,-2.0548 -0.4573,-4.0961 -0.91,-6.1075 -0.4081,-1.8247 -1.0998,-3.5748 -2.0505,-5.1835 -1.9809,-3.3454 -5.4462,-5.5349 -9.3164,-5.8836 -3.7088,-0.3305 -7.4415,0.2002 -10.9097,1.5498 -3.6351,1.4193 -6.1251,4.8021 -6.3867,8.6941 -0.091,1.3232 -0.0564,2.6512 0.1034,3.9662 z m 2.6609,195.9957 c 0.5182,1.328 1.2322,2.5721 2.1206,3.687 1.2016,1.5023 2.8732,2.5599 4.7495,3.0002 4.8452,1.1318 9.9431,-0.0392 13.805,-3.1782 2.9211,-2.3769 4.6426,-5.9165 4.7058,-9.6781 0.0391,-2.3822 -0.2665,-4.7582 -0.9142,-7.0481 -0.6063,-2.1651 -1.6673,-4.1745 -3.1079,-5.9014 -1.8507,-2.213 -4.8064,-3.1666 -7.6017,-2.4437 -3.2867,0.8452 -6.3122,2.4984 -8.7981,4.8061 -3.5102,3.2607 -5.4417,7.8712 -5.298,12.6598 0.0425,1.3708 0.1545,2.7383 0.339,4.0964 z m 0.6222,-58.6361 c -0.1992,2.1722 -0.0428,4.3619 0.4663,6.4862 0.9751,4.053 2.9038,7.81 5.6328,10.9664 1.1194,1.2969 2.4973,2.3423 4.0478,3.0716 2.1524,1.012 4.6347,1.0602 6.8236,0.1284 2.1143,-0.9005 4.0368,-2.1857 5.6766,-3.7921 1.4239,-1.4018 2.7514,-2.9033 3.9617,-4.4918 3.7313,-4.8855 6.5648,-10.3887 8.3679,-16.2649 0.7209,-2.338 1.0012,-4.7892 0.8283,-7.2315 -0.2455,-3.4526 -1.675,-6.7133 -4.0504,-9.2296 -4.5709,-4.8453 -10.6699,-7.962 -17.2741,-8.824 -4.4059,-0.5748 -8.6533,1.8372 -10.4091,5.9179 -1.5074,3.5059 -2.5078,7.2074 -2.9724,10.995 -0.4977,4.0751 -0.8634,8.1675 -1.099,12.2684 z m 0.6925,-46.5866 c 0.2662,1.9576 1.0015,3.8183 2.1422,5.4292 2.1552,3.047 5.9901,4.4059 9.5822,3.3911 1.637,-0.4617 3.0688,-1.4632 4.0632,-2.8428 0.9913,-1.3714 1.6829,-2.9319 2.0361,-4.584 1.0052,-4.7018 1.7671,-9.447 2.2808,-14.2256 0.549,-5.0868 -0.7008,-10.2019 -3.5394,-14.4595 -0.6225,-0.94 -1.5108,-1.6716 -2.5523,-2.107 -1.2787,-0.5347 -2.7283,-0.4439 -3.9302,0.244 -1.8862,1.084 -3.4824,2.6034 -4.6534,4.4328 -1.2058,1.8837 -2.1149,3.943 -2.6864,6.1022 -0.7611,2.8604 -1.4842,5.7336 -2.1722,8.6148 -0.7835,3.2743 -0.9754,6.6617 -0.5706,10.0048 z M 167.1968,165.2349 h -44.9105 l 0.0615,1.3759 c 0.7878,8.2109 3.6066,16.0946 8.2058,22.9428 2.5642,3.8177 6.5086,6.4862 11.0015,7.4489 2.1986,0.4725 4.436,0.7313 6.6801,0.7704 4.3198,0.078 8.6137,-0.6528 12.6624,-2.1551 2.4075,-0.9145 4.6885,-2.1334 6.7867,-3.6264 3.3262,-2.3641 5.3354,-6.1603 5.4156,-10.2399 0.0961,-4.7446 -1.2016,-9.4113 -3.7352,-13.4251 -0.6701,-1.0667 -1.393,-2.0985 -2.1679,-3.0915 z m 31.2491,0 h -26.1165 c 1.8633,4.0314 4.6234,7.5801 8.0714,10.3833 1.7153,1.3932 3.8838,2.107 6.0945,2.0001 1.9029,-0.0932 3.7216,-0.7945 5.19,-2.0046 3.2607,-2.6859 5.6202,-6.3083 6.7606,-10.3788 z m 35.2324,0 h -30.2307 l 0.0306,0.5389 c 0.2515,1.9386 0.836,3.8148 1.7331,5.5516 0.9273,1.7983 2.5509,3.1346 4.4969,3.6921 1.6543,0.4746 3.3897,0.6095 5.0978,0.4003 4.1486,-0.5139 8.1803,-1.711 11.937,-3.5439 2.9475,-1.4366 5.372,-3.7567 6.9353,-6.639 z m 18.8458,42.9162 v -36.9824 c -3.2867,-1.2405 -6.9131,-1.2405 -10.1976,0.005 -2.8494,1.0794 -4.9348,3.5612 -5.5035,6.5565 -0.6973,3.6655 -0.9813,7.3968 -0.8504,11.1274 0.061,1.6455 0.0913,3.2865 0.0953,4.932 0.5661,2.1031 1.4193,4.1188 2.5367,5.9905 1.1205,1.8765 2.579,3.5317 4.2987,4.8849 2.7684,2.1289 6.1294,3.3478 9.6208,3.4866 z m 0,44.9453 v -37.2886 c -2.0109,0.0533 -4.0048,0.341 -5.9471,0.8583 -3.8783,1.0276 -6.7867,4.2407 -7.4264,8.2027 -0.5573,3.4653 -0.6968,6.9868 -0.4218,10.4876 0.6786,2.9029 1.584,5.7506 2.707,8.5153 1.245,3.0617 3.3829,5.6763 6.1427,7.5004 1.4794,0.9757 3.1782,1.5701 4.9456,1.7243 z m 0,72.2977 c -3.8355,0.631 -7.3621,2.4803 -10.0698,5.2676 -4.5229,4.6664 -8.1141,10.1477 -10.5826,16.16 -1.2821,3.1258 -1.8875,6.4866 -1.7719,9.8643 1.876,4.915 5.4289,9.0074 10.0392,11.5455 1.9023,1.0273 3.9353,1.7935 6.0423,2.2743 2.0982,0.4816 4.2143,0.8864 6.3428,1.2183 z m -1.5103,54.1437 c -1.3376,1.6104 -2.2382,3.5388 -2.6095,5.5979 -0.3686,2.0332 -0.5174,4.0974 -0.4488,6.1602 0.0454,1.302 0.0941,2.6036 0.1545,3.9008 0.057,1.3019 0.0346,2.607 -0.0743,3.9053 0.0304,0.1179 0.0567,0.2355 0.0783,0.3568 0.2922,1.5452 1.0264,2.9719 2.1143,4.1055 0.3805,0.4002 0.6543,0.892 0.7855,1.428 h 1.5103 v -25.4545 z m 1.5103,107.0552 v -69.4979 c -1.978,0.548 -3.6652,1.8363 -4.7058,3.604 -1.4587,2.4619 -2.512,5.1375 -3.13,7.9319 -0.6837,3.0878 -1.1455,6.2218 -1.3892,9.3756 -0.2441,3.1927 -0.4218,6.3927 -0.5307,9.597 -0.1616,5.7421 -0.2526,11.4882 -0.2701,17.2349 -0.0176,6.0693 -0.0613,12.1377 -0.1267,18.2064 0.523,0.9408 1.1891,1.7937 1.9729,2.5313 1.0709,1.0075 2.5069,1.5307 3.9741,1.4474 1.406,-0.078 2.8086,-0.2217 4.2055,-0.4306 z m 0,82.7853 v -38.4409 c -1.6015,0.6791 -3.0041,1.7458 -4.0836,3.1084 -2.1157,2.6725 -3.9135,5.5806 -5.3546,8.6675 -1.698,3.6272 -2.2896,7.6748 -1.698,11.6411 0.362,1.9312 1.1566,3.7567 2.325,5.3333 1.9026,2.568 3.8395,5.1061 5.8076,7.6224 0.7665,0.9754 1.8151,1.6985 3.0036,2.0682 z m 0,57.687 V 616.553 c -0.5964,-3.941 -1.8759,-7.7459 -3.7788,-11.2462 -3.6664,-6.7345 -10.6572,-10.9837 -18.3255,-11.1316 -2.2572,-0.0434 -4.5079,0.1919 -6.7064,0.7007 -5.2546,1.2189 -9.7739,4.5366 -12.5076,9.186 -2.0158,3.4259 -3.3611,7.209 -3.9615,11.1401 -0.7401,4.8498 -0.8883,9.7691 -0.4402,14.654 0.7555,3.983 2.3253,7.7621 4.6066,11.1095 2.3068,3.3795 5.5273,6.0344 9.2855,7.6496 4.3052,1.8499 9.142,2.0251 13.5697,0.4887 8.0237,-2.7876 14.3141,-9.1086 17.0569,-17.1456 0.5352,-1.5968 0.9363,-3.2298 1.2013,-4.8929 z m -57.8744,25.0021 c 0.1565,-0.6661 0.2654,-1.345 0.3351,-2.0287 0.4946,-5.0672 -0.557,-10.1614 -3.0127,-14.6174 -1.3688,-2.4781 -3.0047,-4.7946 -4.8841,-6.9106 -1.6942,-1.9109 -3.7488,-3.4699 -6.0468,-4.5882 -2.1467,-1.0431 -4.5304,-1.4896 -6.9092,-1.2931 -2.4035,0.1955 -4.6667,1.2189 -6.4043,2.895 -2.033,1.9593 -3.4518,4.4711 -4.083,7.2266 -0.8643,3.7795 -1.1101,7.6754 -0.7232,11.5367 0.4267,1.3933 0.9579,2.7556 1.5857,4.0734 0.6308,1.3207 1.4094,2.5614 2.3194,3.7063 z m -47.0041,0 c -0.9272,-2.3363 -2.2393,-4.4971 -3.8874,-6.3952 -1.6381,-1.8896 -3.4444,-3.6264 -5.3989,-5.1883 -4.2919,-3.4055 -9.3985,-5.6304 -14.8189,-6.4445 -5.5769,-0.766 -11.2408,-0.6356 -16.7777,0.3917 -6.8655,1.3465 -13.3957,4.0533 -19.2033,7.956 -3.2568,2.1895 -5.3113,5.7663 -5.5593,9.6803 z m -74.1739,0 c -1.1233,-2.59 -2.6163,-5.0023 -4.4234,-7.1702 -3.9005,-4.667 -8.1145,-9.0638 -12.6119,-13.1559 -0.9618,-0.875 -2.0846,-1.5502 -3.3081,-1.9939 -1.8725,-0.6755 -3.9577,-0.4209 -5.6114,0.692 -1.2149,0.8138 -2.3247,1.7764 -3.3044,2.8647 v 18.7633 z M 44.2125,581.2877 v 41.4675 c 1.8196,-0.4827 3.5433,-1.2645 5.0981,-2.3159 4.3268,-2.9211 7.7267,-7.0135 9.7991,-11.8018 1.9718,-4.5408 2.1031,-9.665 0.37,-14.3013 -0.9304,-2.49 -2.2332,-4.8234 -3.8702,-6.9219 -1.7286,-2.2162 -3.9572,-3.9918 -6.5041,-5.184 -1.5279,-0.7149 -3.2082,-1.0372 -4.8929,-0.9426 z m 0,-53.3216 v 36.7234 c 3.896,2.5988 8.5451,3.814 13.212,3.4608 3.3307,-0.2571 6.2085,-2.4248 7.3661,-5.5596 1.3454,-3.6519 1.6113,-7.6099 0.762,-11.4052 -1.3572,-6.0559 -4.0139,-11.7419 -7.797,-16.6615 -0.8268,-1.0794 -1.7368,-2.0922 -2.7181,-3.0328 -1.8706,-1.7906 -4.2517,-2.9571 -6.8159,-3.3355 -1.3238,-0.1964 -2.6686,-0.2616 -4.0091,-0.1896 z m 0,-56.1648 v 29.9809 c 2.4979,2.9514 5.8507,5.0454 9.5987,5.9899 2.7062,0.6837 5.5602,-0.2345 7.3579,-2.3721 0.6749,-0.8013 1.2144,-1.7112 1.5934,-2.6929 1.2183,-3.1581 1.8025,-6.5262 1.7192,-9.9102 -0.0655,-2.5515 -0.3045,-5.0984 -0.7093,-7.6187 -0.3702,-2.2847 -1.0973,-4.4929 -2.1551,-6.5477 -2.164,-4.2015 -6.408,-6.9259 -11.1306,-7.1394 -2.095,-0.0943 -4.1978,0.009 -6.2742,0.3102 z m 0,-49.9785 v 34.3352 c 0.6305,1.18 1.3145,2.3289 2.0503,3.4438 2.2318,3.3738 6.2037,5.1588 10.2087,4.5799 0.3442,-0.0482 0.6877,-0.1088 1.0313,-0.1786 3.0089,-0.6273 5.4992,-2.7342 6.6072,-5.6029 1.9696,-5.0916 1.6257,-10.7836 -0.9473,-15.5985 -2.0633,-3.8616 -4.1406,-7.7145 -6.2385,-11.5583 -1.4369,-2.6385 -3.3395,-4.9938 -5.6157,-6.9568 -1.9678,-1.6934 -4.5014,-2.5727 -7.096,-2.4638 z m 0,-70.2692 0.002,59.3941 c 1.2164,-0.0173 2.427,-0.1786 3.6068,-0.4791 2.2159,-0.5613 4.0462,-2.1115 4.9672,-4.2049 0.9839,-2.2422 1.5633,-4.6454 1.7019,-7.092 0.3095,-5.3768 0.2307,-10.7703 -0.2302,-16.134 -0.4997,-5.8087 -1.5502,-11.5548 -3.1393,-17.1654 -1.0531,-3.638 -2.4024,-7.1799 -4.0357,-10.5962 -0.6832,-1.4324 -1.6609,-2.6992 -2.8727,-3.7225 z m 0,-51.4446 v 22.061 c 0.7529,1.2823 1.7326,2.4145 2.8948,3.3417 2.0718,1.6452 4.7798,2.2502 7.353,1.6379 5.1631,-1.2249 9.6906,-4.3073 12.7205,-8.6616 2.7958,-4.0215 3.888,-8.9844 3.0348,-13.8075 -0.4706,-2.6646 -1.3022,-5.2506 -2.4735,-7.689 -1.2135,-2.5245 -2.9336,-4.7665 -5.0539,-6.5883 -2.9432,-2.5285 -7.1484,-2.954 -10.535,-1.057 -3.0387,1.6988 -5.4419,4.3415 -6.8437,7.5285 -0.4487,1.0491 -0.8141,2.1288 -1.097,3.2343 z m 0,-50.3779 V 272.16 c 0.9312,-0.5397 1.7011,-1.3147 2.2329,-2.251 2.0863,-3.6745 3.0166,-7.8922 2.6691,-12.1065 -0.1568,-1.8941 -0.7316,-3.7315 -1.6897,-5.3767 -0.5514,-0.9491 -1.1798,-1.8499 -1.8848,-2.6947 z m 0,-21.31 c 1.1668,-1.0712 1.9979,-2.4511 2.3981,-3.9824 1.3238,-5.0334 1.6195,-10.2838 0.8666,-15.4366 -0.144,-0.9771 -0.4966,-1.9125 -1.0403,-2.7402 -0.5488,-0.8331 -1.3193,-1.4976 -2.2244,-1.9151 z M 30.4313,667.2521 H 266.305 V 150.0525 H 30.4313 Z m 222.088,-383.6296 v -21.5144 c -3.6176,-1.1146 -7.2847,-2.0637 -10.9876,-2.8514 -4.7146,-0.9972 -9.5948,-0.8493 -14.2399,0.4394 -1.7725,0.4921 -3.4353,1.3192 -4.9022,2.4378 -1.6934,1.2928 -2.8854,3.1345 -3.3693,5.2072 -0.479,2.035 -0.555,4.1397 -0.2265,6.2033 3.2825,6.4846 9.1338,11.2882 16.1382,13.2347 4.7234,1.2886 9.7501,0.8487 14.1778,-1.2413 1.1809,-0.557 2.3176,-1.197 3.4095,-1.9153 z"
     style="fill:#102a83;fill-rule:evenodd;stroke:#000000;stroke-width:0.21600001;stroke-linecap:butt;stroke-linejoin:bevel;stroke-dasharray:none"
     id="path2"
     inkscape:connector-curvature="0" />
  <path
     d="m 324.1431,188.67 c 0.7181,3.7307 3.5042,6.717 7.1743,7.6882 3.9262,1.0403 7.9103,1.8629 11.9279,2.4636 2.4859,0.3736 4.994,0.5964 7.5104,0.6706 2.1979,0.0652 4.3971,-0.1003 6.5602,-0.4918 3.3956,-0.6182 6.1081,-3.17 6.9307,-6.5256 0.5269,-2.1379 0.7617,-4.3407 0.7098,-6.5432 -0.0573,-2.3298 -0.6619,-4.6154 -1.7674,-6.6699 -0.8884,-1.6589 -2.4032,-2.8911 -4.2061,-3.4308 -1.8717,-0.557 -3.8293,-0.7705 -5.777,-0.6313 -4.5966,0.3314 -9.1944,0.5488 -13.7996,0.6625 -2.7519,0.0691 -5.4873,0.3775 -8.1839,0.9198 -1.9123,0.3858 -3.6663,1.3351 -5.0338,2.7235 -0.9615,0.9752 -1.6106,2.2082 -1.8672,3.5521 -0.3574,1.8508 -0.4161,3.7443 -0.1783,5.6123 z m 6.0118,160.3891 c 0.3268,1.5458 0.9317,3.0172 1.7804,4.3492 0.9108,1.4278 2.3902,2.401 4.0663,2.6688 1.6237,0.2654 3.2831,0.1389 4.8498,-0.3617 1.9069,-0.614 3.6726,-1.6018 5.1857,-2.9126 3.996,-3.4608 8.0011,-6.9154 12.0059,-10.3612 1.6761,-1.4405 3.1087,-3.1382 4.2488,-5.0281 1.7711,-2.9298 2.0942,-6.508 0.8796,-9.7078 -0.8317,-2.1855 -2.9126,-3.6354 -5.25,-3.6527 -1.4556,-0.009 -2.9039,0.2098 -4.2925,0.6574 -6.2734,2.0111 -12.2072,4.9541 -17.6012,8.729 -1.4015,0.9788 -2.66,2.1415 -3.7486,3.4565 -1.3714,1.6631 -2.1894,3.7109 -2.3348,5.8598 -0.1421,2.1056 -0.072,4.2151 0.2106,6.3034 z m 2.9562,-119.6861 c 2.7989,5.7569 7.7944,10.1404 13.8663,12.1646 4.3398,1.4414 9.1063,-0.1607 11.6841,-3.935 1.6109,-2.3596 2.5942,-5.0894 2.8514,-7.9365 0.2539,-2.804 0.2094,-5.6324 -0.1304,-8.4282 -0.362,-2.9863 -1.302,-5.8731 -2.7689,-8.5026 -1.7028,-3.0515 -5.046,-4.8019 -8.5244,-4.4623 -4.0096,0.3921 -7.8134,1.9423 -10.9519,4.4629 -3.1881,2.5637 -5.2688,6.251 -5.8088,10.3039 -0.2829,2.0988 -0.3523,4.2188 -0.2174,6.3332 z m 1.6778,36.5139 c 0.7677,2.7598 1.609,5.4981 2.5274,8.2106 0.9227,2.7295 2.2638,5.2979 3.9787,7.6138 1.9812,2.6762 5.116,4.2495 8.4456,4.2319 5.6775,-0.0261 11.0063,-2.7252 14.3838,-7.2924 2.1696,-2.9384 3.2919,-6.5214 3.1873,-10.1741 -0.061,-2.1371 -0.4791,-4.2486 -1.2322,-6.247 -0.7617,-2.0157 -1.9769,-3.8226 -3.5524,-5.2889 -4.9326,-4.5794 -11.4713,-7.0228 -18.1976,-6.8046 -1.3972,0.0476 -2.7819,0.3093 -4.1012,0.7747 -1.3447,0.4745 -2.4987,1.3709 -3.2949,2.5552 -0.9658,1.4366 -1.5891,3.0733 -1.8284,4.7866 -0.3484,2.527 -0.4541,5.083 -0.3161,7.6342 z m 2.6589,123.8811 c 0.5392,3.5263 1.6053,6.952 3.1601,10.1608 4.388,9.0513 14.3005,14.0227 24.1784,12.1119 5.3986,-1.0451 10.1611,-4.1879 13.2378,-8.7463 4.8203,-7.1442 6.6793,-15.8732 5.1817,-24.3621 -1.3277,-7.5183 -5.5417,-14.2183 -11.7456,-18.6678 -4.6712,-3.3517 -10.4871,-4.6885 -16.1513,-3.71 -5.9947,1.0332 -11.1622,4.7857 -13.9963,10.163 -3.731,7.0733 -5.0848,15.1529 -3.8648,23.0505 z m 2.6589,195.1169 c 0.6225,2.6385 1.9591,5.0545 3.8659,6.9832 2.8656,2.8992 7.3228,3.5042 10.8533,1.4711 3.0339,-1.741 5.4465,-4.384 6.9089,-7.5617 1.493,-3.2479 1.946,-6.8785 1.2886,-10.3918 -0.5706,-3.043 -3.1042,-5.324 -6.1908,-5.5638 -3.9093,-0.3087 -7.8191,0.5406 -11.249,2.442 -2.8905,1.6016 -4.8479,4.4759 -5.2765,7.7494 -0.2137,1.6155 -0.2789,3.2434 -0.2004,4.8716 z m 1.9897,39.0067 c 0.2698,1.3147 0.6658,2.5994 1.1795,3.8356 1.0275,2.4811 3.1345,4.3531 5.7206,5.076 3.3517,0.9357 6.8354,1.2934 10.3087,1.0533 3.8965,-0.2724 7.3222,-2.6685 8.9031,-6.2385 1.8244,-4.1093 2.4641,-8.6368 1.8544,-13.0864 -0.4201,-3.0688 -1.5673,-5.9899 -3.3477,-8.5218 -2.2246,-3.1586 -6.3955,-4.2599 -9.8861,-2.605 -5.5114,2.6113 -9.9655,7.0172 -12.6352,12.4985 -1.218,2.5007 -1.9315,5.2158 -2.0973,7.9883 z m 2.66,-131.474 c 0.2265,2.2439 0.6704,4.4623 1.3278,6.6221 1.8521,6.0774 6.1866,11.086 11.9384,13.7829 7.0381,3.3037 15.04,3.8831 22.4795,1.6239 4.197,-1.2759 7.4359,-4.619 8.578,-8.8543 1.4658,-5.4334 1.3237,-11.1716 -0.406,-16.5265 -1.2152,-3.7571 -3.2303,-7.2051 -5.9048,-10.1087 -4.3951,-4.767 -9.3456,-8.9813 -14.7521,-12.5597 -3.2051,-2.1243 -6.8935,-3.409 -10.7274,-3.7395 -3.0212,-0.2568 -5.9905,0.9227 -8.0101,3.1867 -1.6359,1.8369 -2.7599,4.07 -3.2607,6.4775 -1.3717,6.6047 -1.7983,13.3696 -1.2626,20.0956 z m 0.0258,-59.3659 c 0.1256,0.6046 0.3268,1.1908 0.6058,1.7435 1.3229,2.6153 3.1909,4.9156 5.4844,6.7437 1.8771,1.4978 3.9402,2.7465 6.143,3.7097 2.4786,1.0885 5.351,0.7307 7.4928,-0.9258 1.7759,-1.3771 3.1731,-3.1797 4.0612,-5.2433 1.0622,-2.4684 1.6852,-5.1023 1.8377,-7.7882 0.2041,-3.5438 -1.0797,-7.0137 -3.5481,-9.5646 -3.6437,-3.7658 -8.9153,-5.4681 -14.0675,-4.5406 -4.326,0.7838 -7.6391,4.2713 -8.1921,8.6327 -0.3045,2.4049 -0.2435,4.8452 0.1828,7.2329 z m 1.302,100.0663 c 0.392,1.4497 0.7534,2.9081 1.0794,4.375 0.6837,3.087 1.5891,6.1226 2.7028,9.0859 0.5579,1.4894 1.3374,2.89 2.3083,4.1534 1.7892,2.338 4.4679,3.8301 7.4004,4.1224 2.0727,0.2049 4.1635,0.1655 6.23,-0.1219 7.6711,-1.1364 14.7724,-4.7013 20.2663,-10.1741 2.1761,-2.166 3.6124,-4.9558 4.1215,-7.9801 0.5049,-3.0297 0.156,-6.1336 -1.0099,-8.9754 -0.6438,-1.5669 -1.4451,-3.0659 -2.3896,-4.4693 -1.372,-2.0356 -3.4682,-3.4705 -5.8641,-4.0119 -2.1509,-0.4836 -4.3713,-0.5925 -6.561,-0.3215 -4.1661,0.5216 -8.3606,0.783 -12.5598,0.7827 -3.2168,0 -6.4077,0.5009 -9.4654,1.4933 -1.6969,0.5488 -3.2199,1.5321 -4.4173,2.8513 -0.9314,1.029 -1.5542,2.3032 -1.7892,3.6701 -0.3141,1.8246 -0.3317,3.6873 -0.0524,5.5201 z m 11.2969,-233.3287 c 0.5833,1.7983 1.2846,3.5546 2.0945,5.2656 1.1452,2.4027 2.3508,4.7756 3.613,7.1207 2.0943,3.8846 4.7974,7.4041 8.0102,10.4278 1.9083,1.7983 4.5017,2.6773 7.1095,2.4123 2.9427,-0.2968 5.5154,-2.0991 6.7987,-4.7631 1.237,-2.5688 1.5505,-5.4814 0.8852,-8.2545 -0.5887,-2.4593 -1.6415,-4.7812 -3.1002,-6.8476 -0.8311,-1.1801 -1.6543,-2.3639 -2.4684,-3.557 -0.7969,-1.1749 -1.6872,-2.2813 -2.6553,-3.3131 -0.9274,-0.9884 -1.824,-2.0069 -2.6861,-3.0518 -0.7752,-0.9399 -1.6024,-1.8346 -2.4857,-2.6767 -1.2367,-1.1889 -2.3986,-2.4557 -3.4744,-3.7922 -1.4757,0.1482 -2.9596,0.2392 -4.4405,0.2744 -1.8499,0.0433 -3.5784,0.9105 -4.7185,2.3678 -1.859,2.3813 -2.7474,5.3767 -2.482,8.3874 z m 9.3121,-59.3787 c 0.087,2.9647 0.6842,5.8898 1.7722,8.6504 0.9366,2.3851 2.7249,4.3353 5.015,5.4845 2.5198,1.2586 5.4678,1.315 8.0317,0.1485 3.1255,-1.4235 6.1161,-3.1257 8.9374,-5.0845 3.9662,-2.7515 8.1153,-5.2372 12.412,-7.4358 7.9498,-4.0708 13.792,-11.3196 16.0733,-19.9528 1.6671,-6.3074 -0.1332,-13.0184 -4.7372,-17.6389 -1.6373,-1.6415 -3.752,-2.7218 -6.0418,-3.0869 -0.4272,-0.07 -0.8626,-0.1032 -1.2977,-0.1003 -2.7734,0.0235 -5.4981,0.7443 -7.9169,2.1027 -3.1581,1.7674 -6.2095,3.7264 -9.1352,5.8595 -5.9428,4.3971 -11.7765,8.9422 -17.4968,13.6301 -3.3305,2.7303 -5.4026,6.6963 -5.7419,10.9891 -0.1701,2.1447 -0.1267,4.2996 0.1259,6.4344 z m 2.6711,-44.9456 c 0.1893,1.5066 0.5969,2.9826 1.2126,4.3755 2.4982,5.6418 8.8413,8.4895 14.7144,6.5963 5.0414,-1.62 9.5714,-4.5239 13.1431,-8.4331 2.7383,-2.9957 4.0833,-7.005 3.7003,-11.0449 -0.1391,-1.4888 -0.3962,-2.9648 -0.7747,-4.4099 -0.7234,-2.7992 -2.116,-5.381 -4.0529,-7.5274 -2.0512,-2.2725 -4.7586,-3.8528 -7.7494,-4.5229 -2.969,-0.6619 -6.0559,-0.5398 -8.9643,0.3568 -2.0545,0.6356 -3.8871,1.8372 -5.2852,3.4739 -1.9885,2.3204 -3.4305,5.0547 -4.2307,8.0016 -0.4093,1.5064 -0.7841,3.0257 -1.1236,4.5499 -0.6265,2.816 -0.8266,5.7073 -0.5896,8.5842 z m 0.6601,382.6281 c 0.0998,2.5518 0.8958,5.0287 2.2984,7.162 2.6549,4.0357 7.7269,5.72 12.2675,4.0703 4.3752,-1.5931 8.2066,-4.3926 11.0534,-8.0754 1.5194,-1.9655 2.5999,-4.2275 3.1822,-6.639 1.0845,-4.5193 0.682,-9.2647 -1.1537,-13.5351 -1.2189,-2.8299 -3.7611,-4.8671 -6.7873,-5.4377 -3.6958,-0.6956 -7.5135,-0.2869 -10.9746,1.1727 -3.5175,1.4831 -6.3298,4.2522 -7.8665,7.7448 -1.8717,4.252 -2.5684,8.9237 -2.0194,13.5374 z m 2.3199,-233.3395 0.3682,6.0097 c 0.3365,1.1299 0.8941,2.179 1.6444,3.085 1.0826,1.3113 2.6544,2.1228 4.3523,2.2373 1.6314,0.1134 3.2689,0.0607 4.8887,-0.157 6.4734,-0.9748 12.7031,-3.1516 18.3721,-6.4213 1.9409,-1.1189 3.4818,-2.8165 4.4093,-4.858 0.2438,-0.5315 0.4264,-1.0843 0.5454,-1.6543 0.9091,-4.2753 -0.136,-8.729 -2.8528,-12.1553 -2.7209,-3.4282 -7.1832,-4.9626 -11.4363,-3.9308 -1.8851,0.4717 -3.6528,1.3246 -5.194,2.5073 -2.0463,1.5721 -3.9923,3.2743 -5.8203,5.0961 -3.248,3.2714 -6.3431,6.6889 -9.277,10.2413 z m 1.0052,111.168 c 0.7928,4.3285 2.4423,8.4557 4.8543,12.1388 1.8238,2.7862 4.5493,4.8583 7.723,5.8725 2.2,0.7036 4.5887,0.5403 6.6736,-0.4566 1.7113,-0.8218 3.2131,-2.0246 4.3798,-3.5224 2.0464,-2.6249 3.8926,-5.3983 5.5242,-8.3018 3.7136,-6.7263 6.8746,-13.7441 9.4564,-20.9835 0.6448,-1.8153 1.0663,-3.6961 1.2577,-5.6114 0.1304,-1.3587 0.0133,-2.7295 -0.3484,-4.0434 -0.3654,-1.3161 -1.0533,-2.5222 -2.0024,-3.5056 -3.725,-3.8537 -9.695,-4.4186 -14.0658,-1.3192 -2.4902,1.7674 -4.8951,3.6436 -7.2096,5.6293 -2.181,1.8717 -4.3662,3.7352 -6.5591,5.5896 -2.1952,1.8545 -4.2763,3.8396 -6.2274,5.9511 -3.1295,3.3738 -4.4184,8.0606 -3.4563,12.5626 z m 8.3049,145.0539 c -1.2347,1.0593 -2.2663,2.334 -3.0458,3.7653 -1.0794,1.9763 -1.5749,4.221 -1.4278,6.4695 0.1395,2.207 0.2565,4.4141 0.3467,6.6203 0.0362,0.911 -0.0162,1.8292 -0.1616,2.7309 0.2458,1.1798 0.7248,2.3028 1.404,3.2998 1.6994,2.486 4.2622,4.2446 7.1915,4.9337 2.9103,0.6868 5.9644,-0.2013 8.0498,-2.3454 2.8559,-2.9367 4.1137,-7.0722 3.3693,-11.1036 -0.4745,-2.5685 -1.5713,-4.9807 -3.1952,-7.0308 -2.0379,-2.5687 -4.2234,-5.0198 -6.5475,-7.3397 z m -4.6522,-324.9408 0.3637,7.7057 c 0.559,1.6364 1.3867,3.1654 2.4528,4.5275 1.6586,2.1243 4.1621,3.4129 6.857,3.5305 2.2728,0.1007 4.5491,-0.0218 6.8003,-0.3659 3.0252,-0.4655 5.9899,-1.2623 8.8413,-2.3814 4.5711,-1.7938 7.8497,-5.8725 8.6156,-10.7223 0.4527,-2.8582 0.5488,-5.7595 0.2835,-8.6412 -0.3062,-3.3525 -1.3502,-6.6005 -3.0566,-9.5037 -1.9871,-3.3914 -5.7549,-5.3201 -9.667,-4.9501 -4.7208,0.4439 -9.0442,2.8213 -11.9497,6.5738 -2.4101,3.1085 -4.6214,6.3646 -6.626,9.7481 -0.9077,1.5355 -1.8791,3.0291 -2.9149,4.479 z m 7.0132,134.9609 c 0.4924,1.593 1.3238,3.0605 2.4338,4.3064 1.554,1.7492 3.8965,2.5764 6.2045,2.1857 2.634,-0.445 5.1273,-1.5029 7.274,-3.092 3.0078,-2.2201 5.3405,-5.2288 6.7385,-8.6944 1.3935,-3.4518 1.9378,-7.1858 1.5891,-10.891 -1.2577,-2.6524 -3.2298,-4.8986 -5.6982,-6.4916 -4.1063,-2.647 -9.534,-1.8547 -12.7037,1.8632 -2.124,2.4868 -3.6956,5.3949 -4.6117,8.5326 -0.6078,2.0724 -1.0466,4.1893 -1.3133,6.334 -0.25,1.9766 -0.2217,3.9784 0.087,5.9471 z m 11.302,108.5879 c 2.0849,5.0947 5.5982,9.4768 10.1174,12.6161 5.1061,3.5479 10.6875,6.3474 16.5821,8.3197 4.5854,1.5364 9.438,2.0982 14.2572,1.6588 4.4841,-0.4093 8.877,-1.4978 13.0345,-3.2309 1.5974,-0.6656 3.0212,-1.6892 4.1616,-2.9911 1.7413,-1.9976 2.3689,-4.7273 1.6716,-7.2797 -0.6656,-2.4366 -1.9061,-4.6788 -3.6179,-6.5341 -1.7626,-1.9148 -3.8307,-3.5215 -6.1166,-4.7582 -5.398,-2.9203 -11.0628,-5.3062 -16.9259,-7.1261 -2.3724,-0.7367 -4.8039,-1.2798 -7.2658,-1.6239 -6.5733,-0.8402 -13.227,-0.7878 -19.7864,0.1567 -1.4896,0.2138 -2.8925,0.8365 -4.0527,1.7983 -1.1015,0.91 -1.8269,2.194 -2.0378,3.6094 -0.2653,1.7847 -0.2736,3.5969 -0.0213,5.385 z m 1.3102,-150.2025 c 0.6795,2.3111 1.5324,4.5666 2.5512,6.7461 1.0275,2.2048 2.529,4.1556 4.3925,5.7181 4.349,3.6476 9.2469,6.5775 14.5182,8.689 1.2671,0.5094 2.5801,0.8924 3.9226,1.1435 0.885,0.167 1.7941,0.1976 2.6907,0.089 1.9851,-0.2355 3.757,-1.358 4.8203,-3.0523 1.0264,-1.6282 1.671,-3.469 1.8884,-5.385 0.4096,-3.666 0,-7.3791 -1.2061,-10.866 -1.1934,-3.4566 -2.7771,-6.7649 -4.7231,-9.8609 -1.5429,-2.4608 -3.5612,-4.5882 -5.938,-6.2598 -1.4281,-1.0014 -3.0742,-1.6435 -4.8059,-1.8683 -4.5978,-0.6004 -9.2602,0.3702 -13.2352,2.7604 -2.4639,1.4848 -4.1789,3.9484 -4.7103,6.774 -0.3306,1.7719 -0.3875,3.5832 -0.1653,5.3722 z m -0.003,-56.8514 c 0.9697,4.5799 3.215,8.7897 6.4769,12.1479 3.1994,3.2981 6.6208,6.3669 10.2429,9.1964 2.6258,2.05 5.4638,3.8183 8.4592,5.2727 3.1737,1.537 6.8961,1.4239 9.9677,-0.3095 3.2018,-1.8045 6.3358,-3.7261 9.396,-5.7589 2.9605,-1.9641 4.9286,-5.1071 5.4077,-8.6286 0.4436,-3.2789 -1.063,-6.5138 -3.8608,-8.2846 -2.0299,-1.2846 -4.0799,-2.5429 -6.1438,-3.7749 -2.1943,-1.3101 -4.3016,-2.7734 -6.3037,-4.3662 -2.0027,-1.5936 -4.0691,-3.1045 -6.1951,-4.528 -1.4896,-0.997 -3.0691,-1.8547 -4.7177,-2.5637 -2.2391,-0.9638 -4.6287,-1.5284 -7.0625,-1.6679 -2.4251,-0.1392 -4.8558,0.0179 -7.244,0.4572 -3.535,0.6577 -6.4516,3.1448 -7.658,6.5348 -0.7181,2.0072 -0.9763,4.1487 -0.7648,6.2733 z m 2.0185,179.0615 c 0.7929,2.1458 1.8899,4.166 3.2565,6.0032 2.4363,3.2825 6.8349,4.4008 10.54,2.677 2.1371,-0.9927 4.1049,-2.3202 5.8244,-3.9348 5.1894,-4.8617 9.9329,-10.1749 14.1792,-15.8822 3.6354,-4.8886 6.0777,-10.5608 7.1268,-16.5643 1.0667,-6.0865 -1.4238,-12.2422 -6.4261,-15.8686 -1.0863,-0.7877 -2.2462,-1.4624 -3.4691,-2.0157 -3.5705,-1.6104 -7.7581,-0.936 -10.6404,1.7195 -2.5594,2.3553 -4.8625,4.972 -6.8825,7.8063 -3.6519,5.1324 -6.7652,10.6223 -9.2942,16.3899 -1.5373,3.4966 -2.778,7.1139 -3.7092,10.8188 -0.7285,2.8907 -0.9014,5.8943 -0.5054,8.8509 z m 5.9859,69.5715 c 0.4043,1.1673 0.9312,2.2901 1.5719,3.3457 1.3756,2.2621 3.8004,3.6766 6.4476,3.7554 1.1359,0.0343 2.268,-0.0567 3.3866,-0.2656 2.8735,-0.54 5.6117,-1.6416 8.0583,-3.2434 4.5017,-2.9517 6.4647,-8.5504 4.7801,-13.661 -0.3611,-1.0976 -0.8229,-2.1563 -1.3799,-3.1694 -1.5891,-2.8866 -4.7455,-4.5448 -8.0235,-4.2101 -4.2006,0.4269 -8.206,1.9591 -11.6149,4.4453 -1.2107,0.8833 -2.1464,2.0937 -2.6975,3.4909 -0.489,1.2416 -0.7588,2.5563 -0.794,3.89 -0.0524,1.8791 0.0352,3.7593 0.2653,5.6222 z m 1.9766,51.7363 c 1.0885,4.0476 2.9736,7.8366 5.5463,11.1495 1.9151,2.4639 3.9399,4.837 6.0687,7.1181 0.9488,1.0139 1.8326,2.0897 2.643,3.217 1.1356,1.5846 2.2677,3.1694 3.3934,4.7622 1.1078,1.5636 3.1569,2.1467 4.9218,1.398 2.5245,-1.0751 4.4838,-3.1603 5.3935,-5.7509 0.6616,-1.8935 1.3362,-3.7831 2.0196,-5.6724 0.51,-1.4063 1.0494,-2.7995 1.6198,-4.1836 1.2064,-2.9342 1.8113,-6.0778 1.775,-9.2512 -0.0207,-1.6455 -0.2761,-3.2783 -0.7566,-4.8478 -0.9269,-3.0104 -2.929,-5.5704 -5.6284,-7.1895 -1.9899,-1.1971 -4.1015,-2.1824 -6.2955,-2.9472 -3.6176,-1.1925 -7.3137,-2.1243 -11.0662,-2.7816 -2.599,-0.4536 -5.2636,0.2477 -7.3009,1.9199 -1.5148,1.2492 -2.3941,3.1067 -2.3938,5.0686 0.004,1.868 0.0603,3.7366 0.1734,5.6013 0.0482,0.7968 0.009,1.5978 -0.1131,2.3896 z m 9.3291,-194.2713 c 0.2574,0.9442 0.5579,1.8714 0.9057,2.7858 2.7564,7.236 7.401,13.6001 13.4566,18.4278 4.1573,3.3177 8.4935,6.4043 12.9867,9.2514 1.3028,0.8229 2.7119,1.4675 4.1879,1.916 3.3086,1.0051 6.8916,-0.0615 9.1071,-2.7173 2.081,-2.4903 3.3475,-5.5508 3.6312,-8.782 0.2699,-3.0683 -0.0827,-6.1589 -1.0366,-9.0859 -2.0157,-6.1759 -4.2678,-12.2692 -6.7561,-18.2696 -1.1364,-2.7428 -2.5951,-5.3419 -4.3452,-7.7409 -1.8238,-2.5075 -4.0703,-4.6797 -6.6385,-6.417 -3.4526,-2.3375 -7.797,-2.9251 -11.7459,-1.5871 -3.3131,1.1259 -6.3167,3.0106 -8.7724,5.5097 -3.5609,3.6263 -5.4592,8.5629 -5.241,13.6391 0.0437,1.0276 0.1304,2.0509 0.2605,3.07 z m 2.6561,-130.6559 c 0.8966,2.7904 2.2547,5.4068 4.0181,7.7448 0.8535,1.1318 1.8374,2.1594 2.9305,3.0605 2.8859,2.3766 6.1568,4.2404 9.6726,5.5148 3.6287,1.3153 7.532,1.6767 11.3426,1.0463 3.6595,-0.6012 6.8377,-2.8562 8.6142,-6.1126 1.4114,-2.5864 2.111,-5.5029 2.0239,-8.4504 -0.0397,-1.3844 -0.1958,-2.7643 -0.4572,-4.1272 -0.7486,-3.8421 -3.5118,-6.9781 -7.2275,-8.1973 -4.5334,-1.4887 -9.2849,-2.194 -14.0562,-2.0763 -3.0781,0.0697 -6.1562,0.1176 -9.2341,0.1304 -0.9008,0.005 -1.7974,0.0258 -2.6946,0.0612 -2.4554,0.1006 -4.4867,1.9499 -4.8144,4.3883 -0.3135,2.3244 -0.3529,4.6797 -0.1179,7.0175 z m 1.3017,-41.6237 c 0.1652,5.1506 1.5103,10.192 3.9268,14.7436 1.0449,1.961 2.5469,3.6416 4.3841,4.8948 1.9851,1.3547 4.6528,1.1191 6.3689,-0.5658 2.0114,-1.976 3.6306,-4.3095 4.7761,-6.8867 4.1485,-9.3379 3.6218,-20.0872 -1.4327,-28.9727 -1.4374,-2.5336 -3.4914,-4.6624 -5.968,-6.1991 -2.1731,-1.345 -4.9984,-0.9187 -6.6787,1.0106 -1.641,1.8845 -2.8905,4.0717 -3.6783,6.4426 -1.6679,4.998 -2.2464,10.2917 -1.6982,15.5327 z m 0.6922,340.2643 c 0.3875,1.0679 0.9578,2.0642 1.6849,2.9387 1.3065,1.5681 3.2142,2.5172 5.2552,2.6085 5.5355,0.2522 11.0522,-0.7532 16.1402,-2.9424 1.8691,-0.828 3.615,-1.9074 5.191,-3.2085 1.1447,-0.9454 2.1402,-2.0554 2.9515,-3.3001 2.8862,-4.4365 4.6148,-9.5253 5.0196,-14.8017 0.0915,-1.2016 -0.0434,-2.4111 -0.396,-3.5614 -0.6897,-2.251 -2.5827,-3.9226 -4.9065,-4.3271 -3.8313,-0.6665 -7.7667,-0.4227 -11.4931,0.7052 -4.4101,1.3411 -8.4977,3.5785 -12.0027,6.5736 -3.5564,3.0345 -6.0653,7.1093 -7.1827,11.6495 -0.6137,2.5081 -0.705,5.1197 -0.2614,7.6657 z m 10.6223,-89.9591 c 0.248,1.4025 0.6964,2.7649 1.3274,4.0442 0.6398,1.2897 1.5937,2.3995 2.7743,3.2261 1.9672,1.3719 4.2443,2.2385 6.6254,2.5282 1.9897,0.2409 4.0054,0.1669 5.9715,-0.2163 5.2906,-1.0358 10.4318,-2.7292 15.2994,-5.0477 0.6381,-0.3033 1.2444,-0.6723 1.8068,-1.0987 2.1025,-1.5891 3.191,-4.1842 2.8469,-6.7957 -0.2353,-1.7938 -0.7271,-3.5442 -1.4588,-5.1996 -2.0979,-4.7617 -5.1848,-9.023 -9.0595,-12.4974 -2.1197,-1.9023 -4.9501,-2.7998 -7.7791,-2.4639 -1.7067,0.2047 -3.352,0.7435 -4.8498,1.5846 -4.6749,2.6379 -8.6301,6.3731 -11.5279,10.8879 -0.7832,1.2186 -1.3363,2.5681 -1.6461,3.9832 -0.5,2.3207 -0.6114,4.7058 -0.3305,7.0651 z m -0.005,-134.9037 c 0.6574,4.4221 2.325,8.6315 4.8717,12.303 0.9445,1.3626 2.112,2.5557 3.4565,3.5302 2.9602,2.1374 6.84,2.5079 10.15,0.9664 1.5786,-0.7353 3.0277,-1.7241 4.2863,-2.9257 3.1907,-3.0319 5.6942,-6.7087 7.3443,-10.7872 1.7784,-4.3968 2.6728,-9.0972 2.6379,-13.8359 -0.0258,-2.7771 -0.5309,-5.5279 -1.4973,-8.1275 -1.0063,-2.7145 -3.1827,-4.828 -5.921,-5.7634 -1.593,-0.5406 -3.2734,-0.758 -4.9493,-0.6404 -3.8483,0.2744 -7.554,1.5412 -10.7625,3.6828 -7.0869,4.7591 -10.8264,13.1477 -9.6166,21.5977 z m 10.6623,-144.1944 c 1.5624,4.9932 4.2267,9.5683 7.7964,13.3872 4.2621,4.5618 8.803,8.85 13.5958,12.846 3.8574,3.2131 8.0325,6.0279 12.4617,8.394 1.83,0.9791 3.8287,1.5973 5.8881,1.8229 1.7586,0.1925 3.5351,-0.1471 5.0981,-0.97 1.55,-0.8152 2.912,-1.9414 4.0048,-3.3041 0.214,-3.757 -0.4309,-7.5095 -1.8887,-10.9751 -1.8553,-4.4141 -3.7749,-8.7982 -5.7609,-13.1519 -4.54,-9.9431 -10.8261,-18.9817 -18.5706,-26.6911 -1.5766,-1.5712 -3.5856,-2.6333 -5.7688,-3.056 -1.8981,-0.3654 -3.8614,-0.161 -5.6424,0.5922 -5.4147,2.2943 -9.4376,6.9922 -10.864,12.6949 -0.6897,2.751 -0.8073,5.6118 -0.3495,8.411 z m 3.9696,48.3182 c 0.2438,1.2847 0.6284,2.5382 1.15,3.7375 0.8875,2.0353 2.6898,3.526 4.8535,4.0122 3.7715,0.8467 7.7088,0.5357 11.3,-0.8904 2.7397,-1.0905 4.6729,-3.5765 5.0556,-6.5018 0.3181,-2.4489 0.0355,-4.9397 -0.8223,-7.2573 -1.0843,-2.9302 -3.9005,-4.8543 -7.0262,-4.8019 -3.6275,0.0652 -7.2137,0.8096 -10.5662,2.2025 -2.0197,0.8399 -3.4546,2.6686 -3.7876,4.8286 -0.2393,1.5449 -0.2917,3.1121 -0.1568,4.6706 z m 8.6462,134.9093 c 0.6789,4.1919 1.8131,8.2933 3.3872,12.2375 1.1143,2.7901 2.6294,5.4025 4.5011,7.7556 2.4165,3.0364 6.3728,4.3945 10.1435,3.4761 6.3734,-1.556 11.3845,-6.4633 13.0691,-12.8033 1.6367,-6.1687 0.5618,-12.734 -2.965,-18.0538 -3.9646,-5.9947 -10.1996,-10.1044 -17.2735,-11.3848 -0.6928,-0.1259 -1.3938,-0.1828 -2.0988,-0.1692 -3.1527,0.0479 -5.9833,1.9369 -7.2368,4.8305 -0.8,1.8431 -1.2963,3.8024 -1.4658,5.8051 -0.2339,2.7637 -0.2526,5.542 -0.061,8.3063 z m 1.9979,209.5611 c -0.0173,0.4139 0.0309,0.8286 0.1429,1.228 0.5145,1.828 1.5205,3.4784 2.9049,4.7755 0.6965,0.6491 1.4017,1.2889 2.1115,1.9196 0.7399,0.6537 1.554,1.2192 2.4288,1.6762 1.3495,0.7055 2.7391,1.33 4.1663,1.8677 2.9024,1.093 6.1645,0.4791 8.4736,-1.5905 3.6939,-3.3112 5.3921,-8.3047 4.4867,-13.1808 -0.2962,-1.5931 -0.9139,-3.1085 -1.8133,-4.4578 -2.2354,-3.348 -5.7138,-5.6613 -9.6667,-6.4253 -4.053,-0.784 -8.2196,0.5616 -11.0489,3.5663 -1.1687,1.2438 -1.9593,2.7898 -2.2771,4.4657 -0.3832,2.0372 -0.3523,4.1315 0.0913,6.1554 z m 2.6603,-145.0871 c 0.3223,1.6285 0.8966,3.1955 1.7065,4.6452 0.8356,1.4978 1.8209,2.9038 2.9432,4.1992 1.4233,1.6362 3.1909,2.9307 5.1848,3.7848 2.09,0.8969 4.4907,0.6803 6.3865,-0.5785 2.0676,-1.3669 3.8528,-3.1218 5.2591,-5.1613 5.0718,-7.3543 9.5341,-15.1042 13.3498,-23.1798 1.4343,-3.1521 2.836,-6.3207 4.212,-9.4949 1.3938,-3.2259 2.8165,-6.4386 4.2616,-9.6432 0.7047,-1.5231 1.3844,-3.06 2.0378,-4.6052 0.6052,-1.4326 0.9882,-2.9435 1.1361,-4.4886 0.1701,-1.7331 -0.1958,-3.475 -1.0426,-4.9978 -0.8342,-1.4973 -1.9267,-2.838 -3.2238,-3.9574 -2.4426,-0.3997 -4.9371,0.2865 -6.8352,1.8748 -1.815,1.5194 -3.4869,3.1969 -5.0031,5.0167 -0.4777,0.5746 -0.9607,1.1447 -1.444,1.711 -1.946,2.2198 -3.9271,4.4127 -5.9386,6.5736 -1.9936,2.1376 -3.9571,4.3055 -5.8898,6.4995 -5.5772,6.5177 -10.5001,13.5698 -14.6931,21.0558 -1.8335,3.2712 -2.6719,7.0064 -2.4072,10.7461 z m 0.3178,-145.1046 c 1.0797,1.3586 2.5208,2.3916 4.1573,2.9783 0.7143,0.2568 1.476,0.3478 2.2291,0.2699 2.3505,-0.2463 4.5539,-1.2495 6.2805,-2.8605 1.8825,-1.7546 3.3712,-3.8919 4.3682,-6.2648 2.2546,-5.3717 4.6496,-10.6832 7.1787,-15.9333 1.2362,-2.5645 2.2765,-5.2239 3.1085,-7.9489 1.0579,-3.4704 1.5758,-7.0832 1.5412,-10.7098 -0.0525,-4.7974 -3.4566,-8.8983 -8.163,-9.8255 -0.949,-0.1874 -1.9156,-0.2834 -2.8862,-0.2962 -2.806,-0.0261 -5.3986,1.4842 -6.7564,3.9399 -1.0057,1.8238 -1.7764,3.7695 -2.2855,5.7897 -1.2586,4.9865 -2.6734,9.9346 -4.2449,14.8323 -0.3439,1.08 -0.6835,2.1634 -1.0185,3.2431 -2.2768,7.3834 -3.4569,15.0585 -3.509,22.7858 z m 2.3598,255.4296 c 0.5179,1.783 1.3102,3.4699 2.355,5.0049 2.6819,3.9415 8.0411,4.9736 11.9934,2.3045 1.8462,-1.2498 3.4265,-2.8471 4.6588,-4.7061 4.0612,-6.1472 7.3528,-12.7683 9.7993,-19.7197 0.9139,-2.5906 1.0143,-5.3912 0.2914,-8.0416 -0.7835,-2.8676 -2.6189,-5.3334 -5.1412,-6.9052 -1.4074,-0.8793 -2.982,-1.4599 -4.6235,-1.7062 -1.6804,-0.2529 -3.3954,0.1154 -4.8229,1.0361 -2.0942,1.3541 -3.8611,3.16 -5.1684,5.2851 -2.5637,4.1565 -4.9366,8.424 -7.1172,12.7948 -1.1237,2.247 -1.8463,4.6738 -2.1428,7.1697 -0.2956,2.4859 -0.322,4.9938 -0.0819,7.4837 z m 2.6382,-49.2375 c 0.4482,3.962 3.1975,7.2811 7.0095,8.4543 5.9593,1.8289 12.3758,-0.7662 15.3803,-6.2254 1.5896,-2.8902 2.6569,-6.0424 3.1515,-9.303 0.6052,-4.0312 0.5412,-8.1321 -0.1961,-12.1417 -0.4176,-2.2652 -1.2189,-4.4441 -2.3678,-6.4389 -1.2331,-2.1424 -3.5708,-3.4044 -6.0424,-3.2516 -1.4023,0.0836 -2.7782,0.4385 -4.0492,1.0403 -3.1695,1.4976 -5.8859,3.8004 -7.8798,6.6869 -1.8371,2.6595 -3.1085,5.6676 -3.7392,8.837 -0.8101,4.0663 -1.2319,8.1978 -1.2668,12.3421 z m 3.3429,-157.7778 c 0.2007,0.8538 0.4706,1.6894 0.8136,2.4953 1.1936,2.8248 3.8882,4.7146 6.9488,4.8711 2.7907,0.1437 5.5417,-0.6968 7.7754,-2.3726 2.7383,-2.0548 5.2634,-4.3792 7.5357,-6.9344 3.4568,-3.975 6.6798,-8.1459 9.6562,-12.4903 3.1014,-4.523 5.9944,-9.186 8.6678,-13.9745 2.6419,-4.8498 5.0927,-9.796 7.3485,-14.8366 1.4015,-3.1217 2.6079,-6.3257 3.6133,-9.5955 1.5288,-4.9621 0.7702,-10.3434 -2.0766,-14.688 -2.6164,-3.9923 -6.3522,-7.1226 -10.7448,-8.9949 -2.5117,-1.0707 -5.3512,-1.0491 -7.8443,0.0612 -1.7679,0.7883 -3.3176,1.9814 -4.5306,3.4872 -2.1084,2.6212 -4.0153,5.4031 -5.705,8.3151 -2.7425,4.7455 -5.1843,9.6563 -7.3091,14.7062 -2.2011,5.3762 -4.1706,10.8411 -5.9029,16.3865 -0.8359,2.7422 -1.6549,5.4882 -2.4562,8.2392 -0.8045,2.7573 -1.6277,5.5088 -2.4679,8.2553 -0.8665,2.7788 -1.6888,5.5727 -2.4638,8.3792 -0.783,2.8268 -1.0712,5.7657 -0.8581,8.6905 z m 12.604,-168.0423 c 1.1534,7.0438 3.0453,13.9444 5.6412,20.5917 1.0406,2.6685 2.4687,5.1721 4.2406,7.4231 2.018,2.5727 4.7149,4.5314 7.7854,5.6548 5.2835,1.9287 11.1302,-0.7532 13.1015,-6.0205 1.2546,-3.344 1.8989,-6.8873 1.9034,-10.4584 0.009,-7.6091 -1.3626,-15.1535 -4.053,-22.2707 -0.9535,-2.5299 -2.2365,-4.9241 -3.812,-7.1184 -1.0939,-1.5236 -2.435,-2.851 -3.9761,-3.9225 -2.7346,-1.9066 -6.2178,-2.3721 -9.3566,-1.2493 -2.6286,0.9408 -5.023,2.4293 -7.026,4.3708 -3.4855,3.3698 -5.1369,8.202 -4.4484,12.9994 z m 9.3407,185.8532 c 1.9083,3.3999 3.9583,6.717 6.1438,9.9468 1.6458,2.4296 3.7528,4.5102 6.2039,6.1251 1.9562,1.2849 4.1837,2.0991 6.5129,2.3689 4.0442,0.4745 7.8792,-1.8898 9.2682,-5.7192 1.1318,-3.1184 1.5891,-6.4445 1.341,-9.7571 -0.1542,-2.0548 -0.4572,-4.0961 -0.9099,-6.1075 -0.4082,-1.8247 -1.0998,-3.5748 -2.0506,-5.1835 -1.9808,-3.3454 -5.4462,-5.5349 -9.3163,-5.8836 -3.7089,-0.3305 -7.4415,0.2002 -10.9097,1.5498 -3.6352,1.4193 -6.1251,4.8021 -6.3867,8.6941 -0.091,1.3232 -0.0565,2.6512 0.1034,3.9662 z m 2.6609,195.9957 c 0.5182,1.328 1.2322,2.5721 2.1206,3.687 1.2016,1.5023 2.8732,2.5599 4.7494,3.0002 4.8453,1.1318 9.9431,-0.0392 13.8051,-3.1782 2.9211,-2.3769 4.6425,-5.9165 4.7057,-9.6781 0.0392,-2.3822 -0.2664,-4.7582 -0.9141,-7.0481 -0.6064,-2.1651 -1.6674,-4.1745 -3.1079,-5.9014 -1.8508,-2.213 -4.8065,-3.1666 -7.6017,-2.4437 -3.2868,0.8452 -6.3122,2.4984 -8.7982,4.8061 -3.5101,3.2607 -5.4416,7.8712 -5.2979,12.6598 0.0425,1.3708 0.1545,2.7383 0.339,4.0964 z m 0.6222,-58.6361 c -0.1993,2.1722 -0.0428,4.3619 0.4663,6.4862 0.9751,4.053 2.9038,7.81 5.6327,10.9664 1.1194,1.2969 2.4973,2.3423 4.0479,3.0716 2.1523,1.012 4.6346,1.0602 6.8236,0.1284 2.1143,-0.9005 4.0368,-2.1857 5.6766,-3.7921 1.4239,-1.4018 2.7513,-2.9033 3.9617,-4.4918 3.7313,-4.8855 6.5648,-10.3887 8.3679,-16.2649 0.7208,-2.338 1.0012,-4.7892 0.8283,-7.2315 -0.2455,-3.4526 -1.675,-6.7133 -4.0504,-9.2296 -4.5709,-4.8453 -10.6699,-7.962 -17.2741,-8.824 -4.4059,-0.5748 -8.6533,1.8372 -10.4091,5.9179 -1.5075,3.5059 -2.5078,7.2074 -2.9724,10.995 -0.4978,4.0751 -0.8634,8.1675 -1.099,12.2684 z m 0.6925,-46.5866 c 0.2662,1.9576 1.0015,3.8183 2.1421,5.4292 2.1552,3.047 5.9902,4.4059 9.5823,3.3911 1.637,-0.4617 3.0688,-1.4632 4.0632,-2.8428 0.9912,-1.3714 1.6829,-2.9319 2.0361,-4.584 1.0052,-4.7018 1.7671,-9.447 2.2807,-14.2256 0.5491,-5.0868 -0.7007,-10.2019 -3.5393,-14.4595 -0.6225,-0.94 -1.5109,-1.6716 -2.5523,-2.107 -1.2787,-0.5347 -2.7284,-0.4439 -3.9302,0.244 -1.8862,1.084 -3.4824,2.6034 -4.6534,4.4328 -1.2059,1.8837 -2.1149,3.943 -2.6864,6.1022 -0.7611,2.8604 -1.4842,5.7336 -2.1722,8.6148 -0.7835,3.2743 -0.9754,6.6617 -0.5706,10.0048 z M 445.46,165.2349 h -44.9104 l 0.0615,1.3759 c 0.7878,8.2109 3.6065,16.0946 8.2058,22.9428 2.5642,3.8177 6.5086,6.4862 11.0015,7.4489 2.1985,0.4725 4.4359,0.7313 6.6801,0.7704 4.3197,0.078 8.6137,-0.6528 12.6624,-2.1551 2.4074,-0.9145 4.6885,-2.1334 6.7867,-3.6264 3.3262,-2.3641 5.3354,-6.1603 5.4156,-10.2399 0.0961,-4.7446 -1.2016,-9.4113 -3.7352,-13.4251 -0.6701,-1.0667 -1.393,-2.0985 -2.168,-3.0915 z m 31.2492,0 h -26.1165 c 1.8632,4.0314 4.6233,7.5801 8.0714,10.3833 1.7152,1.3932 3.8837,2.107 6.0945,2.0001 1.9029,-0.0932 3.7216,-0.7945 5.1899,-2.0046 3.2607,-2.6859 5.6203,-6.3083 6.7607,-10.3788 z m 35.2323,0 h -30.2306 l 0.0306,0.5389 c 0.2514,1.9386 0.8359,3.8148 1.7331,5.5516 0.9272,1.7983 2.5509,3.1346 4.4969,3.6921 1.6543,0.4746 3.3897,0.6095 5.0978,0.4003 4.1485,-0.5139 8.1802,-1.711 11.937,-3.5439 2.9475,-1.4366 5.3719,-3.7567 6.9352,-6.639 z m 18.8459,42.9162 v -36.9824 c -3.2868,-1.2405 -6.9131,-1.2405 -10.1976,0.005 -2.8494,1.0794 -4.9349,3.5612 -5.5035,6.5565 -0.6973,3.6655 -0.9814,7.3968 -0.8504,11.1274 0.061,1.6455 0.0913,3.2865 0.0952,4.932 0.5661,2.1031 1.4194,4.1188 2.5368,5.9905 1.1205,1.8765 2.5789,3.5317 4.2987,4.8849 2.7683,2.1289 6.1294,3.3478 9.6208,3.4866 z m 0,44.9453 v -37.2886 c -2.0109,0.0533 -4.0048,0.341 -5.9471,0.8583 -3.8783,1.0276 -6.7867,4.2407 -7.4265,8.2027 -0.5573,3.4653 -0.6967,6.9868 -0.4218,10.4876 0.6786,2.9029 1.584,5.7506 2.7071,8.5153 1.245,3.0617 3.3829,5.6763 6.1427,7.5004 1.4794,0.9757 3.1782,1.5701 4.9456,1.7243 z m 0,72.2977 c -3.8356,0.631 -7.3621,2.4803 -10.0698,5.2676 -4.523,4.6664 -8.1142,10.1477 -10.5826,16.16 -1.2821,3.1258 -1.8876,6.4866 -1.7719,9.8643 1.876,4.915 5.4289,9.0074 10.0392,11.5455 1.9023,1.0273 3.9353,1.7935 6.0423,2.2743 2.0982,0.4816 4.2143,0.8864 6.3428,1.2183 z m -1.5103,54.1437 c -1.3377,1.6104 -2.2382,3.5388 -2.6096,5.5979 -0.3685,2.0332 -0.5173,4.0974 -0.4487,6.1602 0.0454,1.302 0.0941,2.6036 0.1545,3.9008 0.057,1.3019 0.0346,2.607 -0.0743,3.9053 0.0304,0.1179 0.0567,0.2355 0.0783,0.3568 0.2922,1.5452 1.0264,2.9719 2.1143,4.1055 0.3804,0.4002 0.6543,0.892 0.7855,1.428 h 1.5103 v -25.4545 z m 1.5103,107.0552 v -69.4979 c -1.978,0.548 -3.6652,1.8363 -4.7058,3.604 -1.4587,2.4619 -2.5121,5.1375 -3.13,7.9319 -0.6837,3.0878 -1.1455,6.2218 -1.3893,9.3756 -0.244,3.1927 -0.4218,6.3927 -0.5306,9.597 -0.1616,5.7421 -0.2526,11.4882 -0.2702,17.2349 -0.0175,6.0693 -0.0612,12.1377 -0.1267,18.2064 0.523,0.9408 1.1892,1.7937 1.9729,2.5313 1.071,1.0075 2.507,1.5307 3.9742,1.4474 1.406,-0.078 2.8086,-0.2217 4.2055,-0.4306 z m 0,82.7853 v -38.4409 c -1.6016,0.6791 -3.0042,1.7458 -4.0836,3.1084 -2.1158,2.6725 -3.9135,5.5806 -5.3546,8.6675 -1.698,3.6272 -2.2896,7.6748 -1.698,11.6411 0.362,1.9312 1.1565,3.7567 2.325,5.3333 1.9026,2.568 3.8395,5.1061 5.8076,7.6224 0.7665,0.9754 1.815,1.6985 3.0036,2.0682 z m 0,57.687 V 616.553 c -0.5964,-3.941 -1.876,-7.7459 -3.7789,-11.2462 -3.6663,-6.7345 -10.6571,-10.9837 -18.3254,-11.1316 -2.2572,-0.0434 -4.5079,0.1919 -6.7065,0.7007 -5.2546,1.2189 -9.7738,4.5366 -12.5076,9.186 -2.0157,3.4259 -3.361,7.209 -3.9614,11.1401 -0.7401,4.8498 -0.8884,9.7691 -0.4402,14.654 0.7554,3.983 2.3253,7.7621 4.6066,11.1095 2.3068,3.3795 5.5273,6.0344 9.2854,7.6496 4.3053,1.8499 9.142,2.0251 13.5698,0.4887 8.0237,-2.7876 14.3141,-9.1086 17.0569,-17.1456 0.5352,-1.5968 0.9363,-3.2298 1.2013,-4.8929 z m -57.8744,25.0021 c 0.1565,-0.6661 0.2653,-1.345 0.3351,-2.0287 0.4946,-5.0672 -0.557,-10.1614 -3.0127,-14.6174 -1.3688,-2.4781 -3.0047,-4.7946 -4.8841,-6.9106 -1.6943,-1.9109 -3.7488,-3.4699 -6.0469,-4.5882 -2.1466,-1.0431 -4.5303,-1.4896 -6.9091,-1.2931 -2.4035,0.1955 -4.6667,1.2189 -6.4043,2.895 -2.033,1.9593 -3.4518,4.4711 -4.0831,7.2266 -0.8642,3.7795 -1.11,7.6754 -0.7231,11.5367 0.4266,1.3933 0.9578,2.7556 1.5857,4.0734 0.6307,1.3207 1.4094,2.5614 2.3193,3.7063 z m -47.0041,0 c -0.9272,-2.3363 -2.2394,-4.4971 -3.8874,-6.3952 -1.6382,-1.8896 -3.4444,-3.6264 -5.3989,-5.1883 -4.2919,-3.4055 -9.3985,-5.6304 -14.8189,-6.4445 -5.5769,-0.766 -11.2408,-0.6356 -16.7777,0.3917 -6.8656,1.3465 -13.3957,4.0533 -19.2034,7.956 -3.2567,2.1895 -5.3112,5.7663 -5.5593,9.6803 z m -74.1739,0 c -1.1233,-2.59 -2.6164,-5.0023 -4.4234,-7.1702 -3.9005,-4.667 -8.1145,-9.0638 -12.6119,-13.1559 -0.9618,-0.875 -2.0846,-1.5502 -3.3081,-1.9939 -1.8725,-0.6755 -3.9577,-0.4209 -5.6114,0.692 -1.215,0.8138 -2.3247,1.7764 -3.3044,2.8647 v 18.7633 z m -29.2592,-70.7797 v 41.4675 c 1.8196,-0.4827 3.5433,-1.2645 5.0981,-2.3159 4.3268,-2.9211 7.7267,-7.0135 9.7991,-11.8018 1.9718,-4.5408 2.103,-9.665 0.3699,-14.3013 -0.9303,-2.49 -2.2331,-4.8234 -3.8701,-6.9219 -1.7286,-2.2162 -3.9572,-3.9918 -6.5041,-5.184 -1.5279,-0.7149 -3.2083,-1.0372 -4.8929,-0.9426 z m 0,-53.3216 v 36.7234 c 3.8959,2.5988 8.5451,3.814 13.212,3.4608 3.3307,-0.2571 6.2085,-2.4248 7.3661,-5.5596 1.3453,-3.6519 1.6112,-7.6099 0.762,-11.4052 -1.3573,-6.0559 -4.0139,-11.7419 -7.797,-16.6615 -0.8269,-1.0794 -1.7368,-2.0922 -2.7181,-3.0328 -1.8706,-1.7906 -4.2517,-2.9571 -6.8159,-3.3355 -1.3238,-0.1964 -2.6686,-0.2616 -4.0091,-0.1896 z m 0,-56.1648 v 29.9809 c 2.4979,2.9514 5.8507,5.0454 9.5987,5.9899 2.7062,0.6837 5.5601,-0.2345 7.3579,-2.3721 0.6749,-0.8013 1.2143,-1.7112 1.5933,-2.6929 1.2184,-3.1581 1.8026,-6.5262 1.7192,-9.9102 -0.0654,-2.5515 -0.3044,-5.0984 -0.7092,-7.6187 -0.3702,-2.2847 -1.0973,-4.4929 -2.1552,-6.5477 -2.1639,-4.2015 -6.408,-6.9259 -11.1305,-7.1394 -2.0951,-0.0943 -4.1978,0.009 -6.2742,0.3102 z m 0,-49.9785 v 34.3352 c 0.6304,1.18 1.3144,2.3289 2.0503,3.4438 2.2317,3.3738 6.2036,5.1588 10.2087,4.5799 0.3441,-0.0482 0.6877,-0.1088 1.0312,-0.1786 3.009,-0.6273 5.4993,-2.7342 6.6073,-5.6029 1.9695,-5.0916 1.6257,-10.7836 -0.9473,-15.5985 -2.0634,-3.8616 -4.1406,-7.7145 -6.2385,-11.5583 -1.4369,-2.6385 -3.3395,-4.9938 -5.6157,-6.9568 -1.9678,-1.6934 -4.5014,-2.5727 -7.096,-2.4638 z m 0,-70.2692 0.002,59.3941 c 1.2163,-0.0173 2.427,-0.1786 3.6068,-0.4791 2.2158,-0.5613 4.0462,-2.1115 4.9671,-4.2049 0.984,-2.2422 1.5634,-4.6454 1.702,-7.092 0.3095,-5.3768 0.2307,-10.7703 -0.2302,-16.134 -0.4998,-5.8087 -1.5503,-11.5548 -3.1394,-17.1654 -1.053,-3.638 -2.4023,-7.1799 -4.0357,-10.5962 -0.6831,-1.4324 -1.6608,-2.6992 -2.8726,-3.7225 z m 0,-51.4446 v 22.061 c 0.7529,1.2823 1.7325,2.4145 2.8948,3.3417 2.0718,1.6452 4.7797,2.2502 7.353,1.6379 5.163,-1.2249 9.6905,-4.3073 12.7205,-8.6616 2.7958,-4.0215 3.888,-8.9844 3.0348,-13.8075 -0.4706,-2.6646 -1.3023,-5.2506 -2.4735,-7.689 -1.2136,-2.5245 -2.9336,-4.7665 -5.0539,-6.5883 -2.9432,-2.5285 -7.1484,-2.954 -10.535,-1.057 -3.0387,1.6988 -5.4419,4.3415 -6.8437,7.5285 -0.4487,1.0491 -0.8141,2.1288 -1.097,3.2343 z m 0,-50.3779 V 272.16 c 0.9312,-0.5397 1.7011,-1.3147 2.2329,-2.251 2.0863,-3.6745 3.0166,-7.8922 2.6691,-12.1065 -0.1568,-1.8941 -0.7317,-3.7315 -1.6898,-5.3767 -0.5513,-0.9491 -1.1797,-1.8499 -1.8847,-2.6947 z m 0,-21.31 c 1.1668,-1.0712 1.9979,-2.4511 2.3981,-3.9824 1.3238,-5.0334 1.6195,-10.2838 0.8666,-15.4366 -0.144,-0.9771 -0.4967,-1.9125 -1.0403,-2.7402 -0.5488,-0.8331 -1.3193,-1.4976 -2.2244,-1.9151 z m -13.7812,438.831 H 544.5683 V 150.0525 H 308.6946 Z m 222.088,-383.6296 v -21.5144 c -3.6176,-1.1146 -7.2848,-2.0637 -10.9877,-2.8514 -4.7146,-0.9972 -9.5947,-0.8493 -14.2398,0.4394 -1.7725,0.4921 -3.4353,1.3192 -4.9022,2.4378 -1.6935,1.2928 -2.8854,3.1345 -3.3693,5.2072 -0.4791,2.035 -0.555,4.1397 -0.2265,6.2033 3.2825,6.4846 9.1338,11.2882 16.1382,13.2347 4.7234,1.2886 9.7501,0.8487 14.1778,-1.2413 1.1809,-0.557 2.3176,-1.197 3.4095,-1.9153 z"
     style="fill:none;stroke:#e30016;stroke-width:0.21600001;stroke-linecap:butt;stroke-linejoin:bevel;stroke-dasharray:none"
     id="path4"
     inkscape:connector-curvature="0" />
</svg>
