0
SECTION
2
HEADER
9
$EXTMIN
10
0
20
0
9
$EXTMAX
10
750
20
975
0
ENDSEC
0
SECTION
2
TABLES
0
TABLE
2
VPORT
70
1
0
VPORT
2
*ACTIVE
70
0
10
0
20
0
11
1
21
1
12
0
22
0
13
0
23
0
14
1
24
1
15
0
25
0
16
0
26
0
36
1
17
0
27
0
37
0
40
300
41
2.12
42
50
43
0
44
0
50
0
51
0
71
0
72
100
73
1
74
1
75
0
76
0
77
0
78
0
0
ENDTAB
0
ENDSEC
0
SECTION
2
ENTITIES
0
POLYLINE
8
1
66
1
70
0
0
VERTEX
8
1
10
103.00
20
103.00
0
VERTEX
8
1
10
107.64
20
103.00
0
VERTEX
8
1
10
107.64
20
99.00
0
VERTEX
8
1
10
116.27
20
99.00
0
VERTEX
8
1
10
116.27
20
103.00
0
VERTEX
8
1
10
124.91
20
103.00
0
VERTEX
8
1
10
124.91
20
99.00
0
VERTEX
8
1
10
133.55
20
99.00
0
VERTEX
8
1
10
133.55
20
103.00
0
VERTEX
8
1
10
142.18
20
103.00
0
VERTEX
8
1
10
142.18
20
99.00
0
VERTEX
8
1
10
150.82
20
99.00
0
VERTEX
8
1
10
150.82
20
103.00
0
VERTEX
8
1
10
159.46
20
103.00
0
VERTEX
8
1
10
159.46
20
99.00
0
VERTEX
8
1
10
168.09
20
99.00
0
VERTEX
8
1
10
168.09
20
103.00
0
VERTEX
8
1
10
176.73
20
103.00
0
VERTEX
8
1
10
176.73
20
99.00
0
VERTEX
8
1
10
185.36
20
99.00
0
VERTEX
8
1
10
185.36
20
103.00
0
VERTEX
8
1
10
190.00
20
103.00
0
VERTEX
8
1
10
190.00
20
111.80
0
VERTEX
8
1
10
194.00
20
111.80
0
VERTEX
8
1
10
194.00
20
120.60
0
VERTEX
8
1
10
190.00
20
120.60
0
VERTEX
8
1
10
190.00
20
129.40
0
VERTEX
8
1
10
194.00
20
129.40
0
VERTEX
8
1
10
194.00
20
138.20
0
VERTEX
8
1
10
190.00
20
138.20
0
VERTEX
8
1
10
190.00
20
147.00
0
VERTEX
8
1
10
194.00
20
147.00
0
VERTEX
8
1
10
194.00
20
155.80
0
VERTEX
8
1
10
190.00
20
155.80
0
VERTEX
8
1
10
190.00
20
164.60
0
VERTEX
8
1
10
194.00
20
164.60
0
VERTEX
8
1
10
194.00
20
173.40
0
VERTEX
8
1
10
190.00
20
173.40
0
VERTEX
8
1
10
190.00
20
182.20
0
VERTEX
8
1
10
194.00
20
182.20
0
VERTEX
8
1
10
194.00
20
191.00
0
VERTEX
8
1
10
190.00
20
191.00
0
VERTEX
8
1
10
190.00
20
199.80
0
VERTEX
8
1
10
194.00
20
199.80
0
VERTEX
8
1
10
194.00
20
208.60
0
VERTEX
8
1
10
190.00
20
208.60
0
VERTEX
8
1
10
190.00
20
217.40
0
VERTEX
8
1
10
194.00
20
217.40
0
VERTEX
8
1
10
194.00
20
226.20
0
VERTEX
8
1
10
190.00
20
226.20
0
VERTEX
8
1
10
190.00
20
235.00
0
VERTEX
8
1
10
185.36
20
235.00
0
VERTEX
8
1
10
185.36
20
239.00
0
VERTEX
8
1
10
176.73
20
239.00
0
VERTEX
8
1
10
176.73
20
235.00
0
VERTEX
8
1
10
168.09
20
235.00
0
VERTEX
8
1
10
168.09
20
239.00
0
VERTEX
8
1
10
159.46
20
239.00
0
VERTEX
8
1
10
159.46
20
235.00
0
VERTEX
8
1
10
150.82
20
235.00
0
VERTEX
8
1
10
150.82
20
239.00
0
VERTEX
8
1
10
142.18
20
239.00
0
VERTEX
8
1
10
142.18
20
235.00
0
VERTEX
8
1
10
133.55
20
235.00
0
VERTEX
8
1
10
133.55
20
239.00
0
VERTEX
8
1
10
124.91
20
239.00
0
VERTEX
8
1
10
124.91
20
235.00
0
VERTEX
8
1
10
116.27
20
235.00
0
VERTEX
8
1
10
116.27
20
239.00
0
VERTEX
8
1
10
107.64
20
239.00
0
VERTEX
8
1
10
107.64
20
235.00
0
VERTEX
8
1
10
103.00
20
235.00
0
VERTEX
8
1
10
103.00
20
226.20
0
VERTEX
8
1
10
99.00
20
226.20
0
VERTEX
8
1
10
99.00
20
217.40
0
VERTEX
8
1
10
103.00
20
217.40
0
VERTEX
8
1
10
103.00
20
208.60
0
VERTEX
8
1
10
99.00
20
208.60
0
VERTEX
8
1
10
99.00
20
199.80
0
VERTEX
8
1
10
103.00
20
199.80
0
VERTEX
8
1
10
103.00
20
191.00
0
VERTEX
8
1
10
99.00
20
191.00
0
VERTEX
8
1
10
99.00
20
182.20
0
VERTEX
8
1
10
103.00
20
182.20
0
VERTEX
8
1
10
103.00
20
173.40
0
VERTEX
8
1
10
99.00
20
173.40
0
VERTEX
8
1
10
99.00
20
164.60
0
VERTEX
8
1
10
103.00
20
164.60
0
VERTEX
8
1
10
103.00
20
155.80
0
VERTEX
8
1
10
99.00
20
155.80
0
VERTEX
8
1
10
99.00
20
147.00
0
VERTEX
8
1
10
103.00
20
147.00
0
VERTEX
8
1
10
103.00
20
138.20
0
VERTEX
8
1
10
99.00
20
138.20
0
VERTEX
8
1
10
99.00
20
129.40
0
VERTEX
8
1
10
103.00
20
129.40
0
VERTEX
8
1
10
103.00
20
120.60
0
VERTEX
8
1
10
99.00
20
120.60
0
VERTEX
8
1
10
99.00
20
111.80
0
VERTEX
8
1
10
103.00
20
111.80
0
VERTEX
8
1
10
103.00
20
103.00
0
SEQEND
0
POLYLINE
8
1
66
1
70
0
0
VERTEX
8
1
10
116.27
20
167.00
0
VERTEX
8
1
10
124.91
20
167.00
0
VERTEX
8
1
10
124.91
20
171.00
0
VERTEX
8
1
10
116.27
20
171.00
0
VERTEX
8
1
10
116.27
20
167.00
0
SEQEND
0
POLYLINE
8
1
66
1
70
0
0
VERTEX
8
1
10
133.55
20
167.00
0
VERTEX
8
1
10
142.18
20
167.00
0
VERTEX
8
1
10
142.18
20
171.00
0
VERTEX
8
1
10
133.55
20
171.00
0
VERTEX
8
1
10
133.55
20
167.00
0
SEQEND
0
POLYLINE
8
1
66
1
70
0
0
VERTEX
8
1
10
150.82
20
167.00
0
VERTEX
8
1
10
159.46
20
167.00
0
VERTEX
8
1
10
159.46
20
171.00
0
VERTEX
8
1
10
150.82
20
171.00
0
VERTEX
8
1
10
150.82
20
167.00
0
SEQEND
0
POLYLINE
8
1
66
1
70
0
0
VERTEX
8
1
10
168.09
20
167.00
0
VERTEX
8
1
10
176.73
20
167.00
0
VERTEX
8
1
10
176.73
20
171.00
0
VERTEX
8
1
10
168.09
20
171.00
0
VERTEX
8
1
10
168.09
20
167.00
0
SEQEND
0
POLYLINE
8
1
66
1
70
0
0
VERTEX
8
1
10
103.00
20
0.00
0
VERTEX
8
1
10
110.91
20
0.00
0
VERTEX
8
1
10
110.91
20
4.00
0
VERTEX
8
1
10
118.82
20
4.00
0
VERTEX
8
1
10
118.82
20
0.00
0
VERTEX
8
1
10
126.73
20
0.00
0
VERTEX
8
1
10
126.73
20
4.00
0
VERTEX
8
1
10
134.64
20
4.00
0
VERTEX
8
1
10
134.64
20
0.00
0
VERTEX
8
1
10
142.54
20
0.00
0
VERTEX
8
1
10
142.54
20
4.00
0
VERTEX
8
1
10
150.46
20
4.00
0
VERTEX
8
1
10
150.46
20
0.00
0
VERTEX
8
1
10
158.36
20
0.00
0
VERTEX
8
1
10
158.36
20
4.00
0
VERTEX
8
1
10
166.27
20
4.00
0
VERTEX
8
1
10
166.27
20
0.00
0
VERTEX
8
1
10
174.18
20
0.00
0
VERTEX
8
1
10
174.18
20
4.00
0
VERTEX
8
1
10
182.09
20
4.00
0
VERTEX
8
1
10
182.09
20
0.00
0
VERTEX
8
1
10
190.00
20
0.00
0
VERTEX
8
1
10
194.00
20
0.00
0
VERTEX
8
1
10
194.00
20
8.64
0
VERTEX
8
1
10
190.00
20
8.64
0
VERTEX
8
1
10
190.00
20
17.27
0
VERTEX
8
1
10
194.00
20
17.27
0
VERTEX
8
1
10
194.00
20
25.91
0
VERTEX
8
1
10
190.00
20
25.91
0
VERTEX
8
1
10
190.00
20
34.55
0
VERTEX
8
1
10
194.00
20
34.55
0
VERTEX
8
1
10
194.00
20
43.18
0
VERTEX
8
1
10
190.00
20
43.18
0
VERTEX
8
1
10
190.00
20
51.82
0
VERTEX
8
1
10
194.00
20
51.82
0
VERTEX
8
1
10
194.00
20
60.45
0
VERTEX
8
1
10
190.00
20
60.45
0
VERTEX
8
1
10
190.00
20
69.09
0
VERTEX
8
1
10
194.00
20
69.09
0
VERTEX
8
1
10
194.00
20
77.73
0
VERTEX
8
1
10
190.00
20
77.73
0
VERTEX
8
1
10
190.00
20
86.36
0
VERTEX
8
1
10
194.00
20
86.36
0
VERTEX
8
1
10
194.00
20
95.00
0
VERTEX
8
1
10
185.36
20
95.00
0
VERTEX
8
1
10
185.36
20
91.00
0
VERTEX
8
1
10
176.73
20
91.00
0
VERTEX
8
1
10
176.73
20
95.00
0
VERTEX
8
1
10
168.09
20
95.00
0
VERTEX
8
1
10
168.09
20
91.00
0
VERTEX
8
1
10
159.46
20
91.00
0
VERTEX
8
1
10
159.46
20
95.00
0
VERTEX
8
1
10
150.82
20
95.00
0
VERTEX
8
1
10
150.82
20
91.00
0
VERTEX
8
1
10
142.18
20
91.00
0
VERTEX
8
1
10
142.18
20
95.00
0
VERTEX
8
1
10
133.55
20
95.00
0
VERTEX
8
1
10
133.55
20
91.00
0
VERTEX
8
1
10
124.91
20
91.00
0
VERTEX
8
1
10
124.91
20
95.00
0
VERTEX
8
1
10
116.27
20
95.00
0
VERTEX
8
1
10
116.27
20
91.00
0
VERTEX
8
1
10
107.64
20
91.00
0
VERTEX
8
1
10
107.64
20
95.00
0
VERTEX
8
1
10
99.00
20
95.00
0
VERTEX
8
1
10
99.00
20
86.36
0
VERTEX
8
1
10
103.00
20
86.36
0
VERTEX
8
1
10
103.00
20
77.73
0
VERTEX
8
1
10
99.00
20
77.73
0
VERTEX
8
1
10
99.00
20
69.09
0
VERTEX
8
1
10
103.00
20
69.09
0
VERTEX
8
1
10
103.00
20
60.45
0
VERTEX
8
1
10
99.00
20
60.45
0
VERTEX
8
1
10
99.00
20
51.82
0
VERTEX
8
1
10
103.00
20
51.82
0
VERTEX
8
1
10
103.00
20
43.18
0
VERTEX
8
1
10
99.00
20
43.18
0
VERTEX
8
1
10
99.00
20
34.55
0
VERTEX
8
1
10
103.00
20
34.55
0
VERTEX
8
1
10
103.00
20
25.91
0
VERTEX
8
1
10
99.00
20
25.91
0
VERTEX
8
1
10
99.00
20
17.27
0
VERTEX
8
1
10
103.00
20
17.27
0
VERTEX
8
1
10
103.00
20
8.64
0
VERTEX
8
1
10
99.00
20
8.64
0
VERTEX
8
1
10
99.00
20
0.00
0
VERTEX
8
1
10
103.00
20
0.00
0
SEQEND
0
POLYLINE
8
1
66
1
70
0
0
VERTEX
8
1
10
103.00
20
338.00
0
VERTEX
8
1
10
110.91
20
338.00
0
VERTEX
8
1
10
110.91
20
334.00
0
VERTEX
8
1
10
118.82
20
334.00
0
VERTEX
8
1
10
118.82
20
338.00
0
VERTEX
8
1
10
126.73
20
338.00
0
VERTEX
8
1
10
126.73
20
334.00
0
VERTEX
8
1
10
134.64
20
334.00
0
VERTEX
8
1
10
134.64
20
338.00
0
VERTEX
8
1
10
142.54
20
338.00
0
VERTEX
8
1
10
142.54
20
334.00
0
VERTEX
8
1
10
150.46
20
334.00
0
VERTEX
8
1
10
150.46
20
338.00
0
VERTEX
8
1
10
158.36
20
338.00
0
VERTEX
8
1
10
158.36
20
334.00
0
VERTEX
8
1
10
166.27
20
334.00
0
VERTEX
8
1
10
166.27
20
338.00
0
VERTEX
8
1
10
174.18
20
338.00
0
VERTEX
8
1
10
174.18
20
334.00
0
VERTEX
8
1
10
182.09
20
334.00
0
VERTEX
8
1
10
182.09
20
338.00
0
VERTEX
8
1
10
190.00
20
338.00
0
VERTEX
8
1
10
194.00
20
338.00
0
VERTEX
8
1
10
194.00
20
329.36
0
VERTEX
8
1
10
190.00
20
329.36
0
VERTEX
8
1
10
190.00
20
320.73
0
VERTEX
8
1
10
194.00
20
320.73
0
VERTEX
8
1
10
194.00
20
312.09
0
VERTEX
8
1
10
190.00
20
312.09
0
VERTEX
8
1
10
190.00
20
303.45
0
VERTEX
8
1
10
194.00
20
303.45
0
VERTEX
8
1
10
194.00
20
294.82
0
VERTEX
8
1
10
190.00
20
294.82
0
VERTEX
8
1
10
190.00
20
286.18
0
VERTEX
8
1
10
194.00
20
286.18
0
VERTEX
8
1
10
194.00
20
277.55
0
VERTEX
8
1
10
190.00
20
277.55
0
VERTEX
8
1
10
190.00
20
268.91
0
VERTEX
8
1
10
194.00
20
268.91
0
VERTEX
8
1
10
194.00
20
260.27
0
VERTEX
8
1
10
190.00
20
260.27
0
VERTEX
8
1
10
190.00
20
251.64
0
VERTEX
8
1
10
194.00
20
251.64
0
VERTEX
8
1
10
194.00
20
243.00
0
VERTEX
8
1
10
185.36
20
243.00
0
VERTEX
8
1
10
185.36
20
247.00
0
VERTEX
8
1
10
176.73
20
247.00
0
VERTEX
8
1
10
176.73
20
243.00
0
VERTEX
8
1
10
168.09
20
243.00
0
VERTEX
8
1
10
168.09
20
247.00
0
VERTEX
8
1
10
159.46
20
247.00
0
VERTEX
8
1
10
159.46
20
243.00
0
VERTEX
8
1
10
150.82
20
243.00
0
VERTEX
8
1
10
150.82
20
247.00
0
VERTEX
8
1
10
142.18
20
247.00
0
VERTEX
8
1
10
142.18
20
243.00
0
VERTEX
8
1
10
133.55
20
243.00
0
VERTEX
8
1
10
133.55
20
247.00
0
VERTEX
8
1
10
124.91
20
247.00
0
VERTEX
8
1
10
124.91
20
243.00
0
VERTEX
8
1
10
116.27
20
243.00
0
VERTEX
8
1
10
116.27
20
247.00
0
VERTEX
8
1
10
107.64
20
247.00
0
VERTEX
8
1
10
107.64
20
243.00
0
VERTEX
8
1
10
99.00
20
243.00
0
VERTEX
8
1
10
99.00
20
251.64
0
VERTEX
8
1
10
103.00
20
251.64
0
VERTEX
8
1
10
103.00
20
260.27
0
VERTEX
8
1
10
99.00
20
260.27
0
VERTEX
8
1
10
99.00
20
268.91
0
VERTEX
8
1
10
103.00
20
268.91
0
VERTEX
8
1
10
103.00
20
277.55
0
VERTEX
8
1
10
99.00
20
277.55
0
VERTEX
8
1
10
99.00
20
286.18
0
VERTEX
8
1
10
103.00
20
286.18
0
VERTEX
8
1
10
103.00
20
294.82
0
VERTEX
8
1
10
99.00
20
294.82
0
VERTEX
8
1
10
99.00
20
303.45
0
VERTEX
8
1
10
103.00
20
303.45
0
VERTEX
8
1
10
103.00
20
312.09
0
VERTEX
8
1
10
99.00
20
312.09
0
VERTEX
8
1
10
99.00
20
320.73
0
VERTEX
8
1
10
103.00
20
320.73
0
VERTEX
8
1
10
103.00
20
329.36
0
VERTEX
8
1
10
99.00
20
329.36
0
VERTEX
8
1
10
99.00
20
338.00
0
VERTEX
8
1
10
103.00
20
338.00
0
SEQEND
0
POLYLINE
8
1
66
1
70
0
0
VERTEX
8
1
10
0.00
20
103.00
0
VERTEX
8
1
10
0.00
20
111.80
0
VERTEX
8
1
10
4.00
20
111.80
0
VERTEX
8
1
10
4.00
20
120.60
0
VERTEX
8
1
10
0.00
20
120.60
0
VERTEX
8
1
10
0.00
20
129.40
0
VERTEX
8
1
10
4.00
20
129.40
0
VERTEX
8
1
10
4.00
20
138.20
0
VERTEX
8
1
10
0.00
20
138.20
0
VERTEX
8
1
10
0.00
20
147.00
0
VERTEX
8
1
10
4.00
20
147.00
0
VERTEX
8
1
10
4.00
20
155.80
0
VERTEX
8
1
10
0.00
20
155.80
0
VERTEX
8
1
10
0.00
20
164.60
0
VERTEX
8
1
10
4.00
20
164.60
0
VERTEX
8
1
10
4.00
20
173.40
0
VERTEX
8
1
10
0.00
20
173.40
0
VERTEX
8
1
10
0.00
20
182.20
0
VERTEX
8
1
10
4.00
20
182.20
0
VERTEX
8
1
10
4.00
20
191.00
0
VERTEX
8
1
10
0.00
20
191.00
0
VERTEX
8
1
10
0.00
20
199.80
0
VERTEX
8
1
10
4.00
20
199.80
0
VERTEX
8
1
10
4.00
20
208.60
0
VERTEX
8
1
10
0.00
20
208.60
0
VERTEX
8
1
10
0.00
20
217.40
0
VERTEX
8
1
10
4.00
20
217.40
0
VERTEX
8
1
10
4.00
20
226.20
0
VERTEX
8
1
10
0.00
20
226.20
0
VERTEX
8
1
10
0.00
20
235.00
0
VERTEX
8
1
10
8.64
20
235.00
0
VERTEX
8
1
10
8.64
20
239.00
0
VERTEX
8
1
10
17.27
20
239.00
0
VERTEX
8
1
10
17.27
20
235.00
0
VERTEX
8
1
10
25.91
20
235.00
0
VERTEX
8
1
10
25.91
20
239.00
0
VERTEX
8
1
10
34.55
20
239.00
0
VERTEX
8
1
10
34.55
20
235.00
0
VERTEX
8
1
10
43.18
20
235.00
0
VERTEX
8
1
10
43.18
20
239.00
0
VERTEX
8
1
10
51.82
20
239.00
0
VERTEX
8
1
10
51.82
20
235.00
0
VERTEX
8
1
10
60.45
20
235.00
0
VERTEX
8
1
10
60.45
20
239.00
0
VERTEX
8
1
10
69.09
20
239.00
0
VERTEX
8
1
10
69.09
20
235.00
0
VERTEX
8
1
10
77.73
20
235.00
0
VERTEX
8
1
10
77.73
20
239.00
0
VERTEX
8
1
10
86.36
20
239.00
0
VERTEX
8
1
10
86.36
20
235.00
0
VERTEX
8
1
10
95.00
20
235.00
0
VERTEX
8
1
10
95.00
20
226.20
0
VERTEX
8
1
10
91.00
20
226.20
0
VERTEX
8
1
10
91.00
20
217.40
0
VERTEX
8
1
10
95.00
20
217.40
0
VERTEX
8
1
10
95.00
20
208.60
0
VERTEX
8
1
10
91.00
20
208.60
0
VERTEX
8
1
10
91.00
20
199.80
0
VERTEX
8
1
10
95.00
20
199.80
0
VERTEX
8
1
10
95.00
20
191.00
0
VERTEX
8
1
10
91.00
20
191.00
0
VERTEX
8
1
10
91.00
20
182.20
0
VERTEX
8
1
10
95.00
20
182.20
0
VERTEX
8
1
10
95.00
20
173.40
0
VERTEX
8
1
10
91.00
20
173.40
0
VERTEX
8
1
10
91.00
20
164.60
0
VERTEX
8
1
10
95.00
20
164.60
0
VERTEX
8
1
10
95.00
20
155.80
0
VERTEX
8
1
10
91.00
20
155.80
0
VERTEX
8
1
10
91.00
20
147.00
0
VERTEX
8
1
10
95.00
20
147.00
0
VERTEX
8
1
10
95.00
20
138.20
0
VERTEX
8
1
10
91.00
20
138.20
0
VERTEX
8
1
10
91.00
20
129.40
0
VERTEX
8
1
10
95.00
20
129.40
0
VERTEX
8
1
10
95.00
20
120.60
0
VERTEX
8
1
10
91.00
20
120.60
0
VERTEX
8
1
10
91.00
20
111.80
0
VERTEX
8
1
10
95.00
20
111.80
0
VERTEX
8
1
10
95.00
20
103.00
0
VERTEX
8
1
10
86.36
20
103.00
0
VERTEX
8
1
10
86.36
20
99.00
0
VERTEX
8
1
10
77.73
20
99.00
0
VERTEX
8
1
10
77.73
20
103.00
0
VERTEX
8
1
10
69.09
20
103.00
0
VERTEX
8
1
10
69.09
20
99.00
0
VERTEX
8
1
10
60.45
20
99.00
0
VERTEX
8
1
10
60.45
20
103.00
0
VERTEX
8
1
10
51.82
20
103.00
0
VERTEX
8
1
10
51.82
20
99.00
0
VERTEX
8
1
10
43.18
20
99.00
0
VERTEX
8
1
10
43.18
20
103.00
0
VERTEX
8
1
10
34.55
20
103.00
0
VERTEX
8
1
10
34.55
20
99.00
0
VERTEX
8
1
10
25.91
20
99.00
0
VERTEX
8
1
10
25.91
20
103.00
0
VERTEX
8
1
10
17.27
20
103.00
0
VERTEX
8
1
10
17.27
20
99.00
0
VERTEX
8
1
10
8.64
20
99.00
0
VERTEX
8
1
10
8.64
20
103.00
0
VERTEX
8
1
10
0.00
20
103.00
0
SEQEND
0
POLYLINE
8
1
66
1
70
0
0
VERTEX
8
1
10
17.27
20
167.00
0
VERTEX
8
1
10
25.91
20
167.00
0
VERTEX
8
1
10
25.91
20
171.00
0
VERTEX
8
1
10
17.27
20
171.00
0
VERTEX
8
1
10
17.27
20
167.00
0
SEQEND
0
POLYLINE
8
1
66
1
70
0
0
VERTEX
8
1
10
34.55
20
167.00
0
VERTEX
8
1
10
43.18
20
167.00
0
VERTEX
8
1
10
43.18
20
171.00
0
VERTEX
8
1
10
34.55
20
171.00
0
VERTEX
8
1
10
34.55
20
167.00
0
SEQEND
0
POLYLINE
8
1
66
1
70
0
0
VERTEX
8
1
10
51.82
20
167.00
0
VERTEX
8
1
10
60.45
20
167.00
0
VERTEX
8
1
10
60.45
20
171.00
0
VERTEX
8
1
10
51.82
20
171.00
0
VERTEX
8
1
10
51.82
20
167.00
0
SEQEND
0
POLYLINE
8
1
66
1
70
0
0
VERTEX
8
1
10
69.09
20
167.00
0
VERTEX
8
1
10
77.73
20
167.00
0
VERTEX
8
1
10
77.73
20
171.00
0
VERTEX
8
1
10
69.09
20
171.00
0
VERTEX
8
1
10
69.09
20
167.00
0
SEQEND
0
POLYLINE
8
1
66
1
70
0
0
VERTEX
8
1
10
293.00
20
103.00
0
VERTEX
8
1
10
293.00
20
111.80
0
VERTEX
8
1
10
289.00
20
111.80
0
VERTEX
8
1
10
289.00
20
120.60
0
VERTEX
8
1
10
293.00
20
120.60
0
VERTEX
8
1
10
293.00
20
129.40
0
VERTEX
8
1
10
289.00
20
129.40
0
VERTEX
8
1
10
289.00
20
138.20
0
VERTEX
8
1
10
293.00
20
138.20
0
VERTEX
8
1
10
293.00
20
147.00
0
VERTEX
8
1
10
289.00
20
147.00
0
VERTEX
8
1
10
289.00
20
155.80
0
VERTEX
8
1
10
293.00
20
155.80
0
VERTEX
8
1
10
293.00
20
164.60
0
VERTEX
8
1
10
289.00
20
164.60
0
VERTEX
8
1
10
289.00
20
173.40
0
VERTEX
8
1
10
293.00
20
173.40
0
VERTEX
8
1
10
293.00
20
182.20
0
VERTEX
8
1
10
289.00
20
182.20
0
VERTEX
8
1
10
289.00
20
191.00
0
VERTEX
8
1
10
293.00
20
191.00
0
VERTEX
8
1
10
293.00
20
199.80
0
VERTEX
8
1
10
289.00
20
199.80
0
VERTEX
8
1
10
289.00
20
208.60
0
VERTEX
8
1
10
293.00
20
208.60
0
VERTEX
8
1
10
293.00
20
217.40
0
VERTEX
8
1
10
289.00
20
217.40
0
VERTEX
8
1
10
289.00
20
226.20
0
VERTEX
8
1
10
293.00
20
226.20
0
VERTEX
8
1
10
293.00
20
235.00
0
VERTEX
8
1
10
284.36
20
235.00
0
VERTEX
8
1
10
284.36
20
239.00
0
VERTEX
8
1
10
275.73
20
239.00
0
VERTEX
8
1
10
275.73
20
235.00
0
VERTEX
8
1
10
267.09
20
235.00
0
VERTEX
8
1
10
267.09
20
239.00
0
VERTEX
8
1
10
258.46
20
239.00
0
VERTEX
8
1
10
258.46
20
235.00
0
VERTEX
8
1
10
249.82
20
235.00
0
VERTEX
8
1
10
249.82
20
239.00
0
VERTEX
8
1
10
241.18
20
239.00
0
VERTEX
8
1
10
241.18
20
235.00
0
VERTEX
8
1
10
232.54
20
235.00
0
VERTEX
8
1
10
232.54
20
239.00
0
VERTEX
8
1
10
223.91
20
239.00
0
VERTEX
8
1
10
223.91
20
235.00
0
VERTEX
8
1
10
215.27
20
235.00
0
VERTEX
8
1
10
215.27
20
239.00
0
VERTEX
8
1
10
206.64
20
239.00
0
VERTEX
8
1
10
206.64
20
235.00
0
VERTEX
8
1
10
198.00
20
235.00
0
VERTEX
8
1
10
198.00
20
226.20
0
VERTEX
8
1
10
202.00
20
226.20
0
VERTEX
8
1
10
202.00
20
217.40
0
VERTEX
8
1
10
198.00
20
217.40
0
VERTEX
8
1
10
198.00
20
208.60
0
VERTEX
8
1
10
202.00
20
208.60
0
VERTEX
8
1
10
202.00
20
199.80
0
VERTEX
8
1
10
198.00
20
199.80
0
VERTEX
8
1
10
198.00
20
191.00
0
VERTEX
8
1
10
202.00
20
191.00
0
VERTEX
8
1
10
202.00
20
182.20
0
VERTEX
8
1
10
198.00
20
182.20
0
VERTEX
8
1
10
198.00
20
173.40
0
VERTEX
8
1
10
202.00
20
173.40
0
VERTEX
8
1
10
202.00
20
164.60
0
VERTEX
8
1
10
198.00
20
164.60
0
VERTEX
8
1
10
198.00
20
155.80
0
VERTEX
8
1
10
202.00
20
155.80
0
VERTEX
8
1
10
202.00
20
147.00
0
VERTEX
8
1
10
198.00
20
147.00
0
VERTEX
8
1
10
198.00
20
138.20
0
VERTEX
8
1
10
202.00
20
138.20
0
VERTEX
8
1
10
202.00
20
129.40
0
VERTEX
8
1
10
198.00
20
129.40
0
VERTEX
8
1
10
198.00
20
120.60
0
VERTEX
8
1
10
202.00
20
120.60
0
VERTEX
8
1
10
202.00
20
111.80
0
VERTEX
8
1
10
198.00
20
111.80
0
VERTEX
8
1
10
198.00
20
103.00
0
VERTEX
8
1
10
206.64
20
103.00
0
VERTEX
8
1
10
206.64
20
99.00
0
VERTEX
8
1
10
215.27
20
99.00
0
VERTEX
8
1
10
215.27
20
103.00
0
VERTEX
8
1
10
223.91
20
103.00
0
VERTEX
8
1
10
223.91
20
99.00
0
VERTEX
8
1
10
232.54
20
99.00
0
VERTEX
8
1
10
232.54
20
103.00
0
VERTEX
8
1
10
241.18
20
103.00
0
VERTEX
8
1
10
241.18
20
99.00
0
VERTEX
8
1
10
249.82
20
99.00
0
VERTEX
8
1
10
249.82
20
103.00
0
VERTEX
8
1
10
258.46
20
103.00
0
VERTEX
8
1
10
258.46
20
99.00
0
VERTEX
8
1
10
267.09
20
99.00
0
VERTEX
8
1
10
267.09
20
103.00
0
VERTEX
8
1
10
275.73
20
103.00
0
VERTEX
8
1
10
275.73
20
99.00
0
VERTEX
8
1
10
284.36
20
99.00
0
VERTEX
8
1
10
284.36
20
103.00
0
VERTEX
8
1
10
293.00
20
103.00
0
SEQEND
0
POLYLINE
8
1
66
1
70
0
0
VERTEX
8
1
10
275.73
20
167.00
0
VERTEX
8
1
10
267.09
20
167.00
0
VERTEX
8
1
10
267.09
20
171.00
0
VERTEX
8
1
10
275.73
20
171.00
0
VERTEX
8
1
10
275.73
20
167.00
0
SEQEND
0
POLYLINE
8
1
66
1
70
0
0
VERTEX
8
1
10
258.46
20
167.00
0
VERTEX
8
1
10
249.82
20
167.00
0
VERTEX
8
1
10
249.82
20
171.00
0
VERTEX
8
1
10
258.46
20
171.00
0
VERTEX
8
1
10
258.46
20
167.00
0
SEQEND
0
POLYLINE
8
1
66
1
70
0
0
VERTEX
8
1
10
241.18
20
167.00
0
VERTEX
8
1
10
232.54
20
167.00
0
VERTEX
8
1
10
232.54
20
171.00
0
VERTEX
8
1
10
241.18
20
171.00
0
VERTEX
8
1
10
241.18
20
167.00
0
SEQEND
0
POLYLINE
8
1
66
1
70
0
0
VERTEX
8
1
10
223.91
20
167.00
0
VERTEX
8
1
10
215.27
20
167.00
0
VERTEX
8
1
10
215.27
20
171.00
0
VERTEX
8
1
10
223.91
20
171.00
0
VERTEX
8
1
10
223.91
20
167.00
0
SEQEND
0
POLYLINE
8
1
66
1
70
0
0
VERTEX
8
1
10
103.00
20
346.00
0
VERTEX
8
1
10
110.91
20
346.00
0
VERTEX
8
1
10
110.91
20
342.00
0
VERTEX
8
1
10
118.82
20
342.00
0
VERTEX
8
1
10
118.82
20
346.00
0
VERTEX
8
1
10
126.73
20
346.00
0
VERTEX
8
1
10
126.73
20
342.00
0
VERTEX
8
1
10
134.64
20
342.00
0
VERTEX
8
1
10
134.64
20
346.00
0
VERTEX
8
1
10
142.54
20
346.00
0
VERTEX
8
1
10
142.54
20
342.00
0
VERTEX
8
1
10
150.46
20
342.00
0
VERTEX
8
1
10
150.46
20
346.00
0
VERTEX
8
1
10
158.36
20
346.00
0
VERTEX
8
1
10
158.36
20
342.00
0
VERTEX
8
1
10
166.27
20
342.00
0
VERTEX
8
1
10
166.27
20
346.00
0
VERTEX
8
1
10
174.18
20
346.00
0
VERTEX
8
1
10
174.18
20
342.00
0
VERTEX
8
1
10
182.09
20
342.00
0
VERTEX
8
1
10
182.09
20
346.00
0
VERTEX
8
1
10
190.00
20
346.00
0
VERTEX
8
1
10
190.00
20
354.80
0
VERTEX
8
1
10
194.00
20
354.80
0
VERTEX
8
1
10
194.00
20
363.60
0
VERTEX
8
1
10
190.00
20
363.60
0
VERTEX
8
1
10
190.00
20
372.40
0
VERTEX
8
1
10
194.00
20
372.40
0
VERTEX
8
1
10
194.00
20
381.20
0
VERTEX
8
1
10
190.00
20
381.20
0
VERTEX
8
1
10
190.00
20
390.00
0
VERTEX
8
1
10
194.00
20
390.00
0
VERTEX
8
1
10
194.00
20
398.80
0
VERTEX
8
1
10
190.00
20
398.80
0
VERTEX
8
1
10
190.00
20
407.60
0
VERTEX
8
1
10
194.00
20
407.60
0
VERTEX
8
1
10
194.00
20
416.40
0
VERTEX
8
1
10
190.00
20
416.40
0
VERTEX
8
1
10
190.00
20
425.20
0
VERTEX
8
1
10
194.00
20
425.20
0
VERTEX
8
1
10
194.00
20
434.00
0
VERTEX
8
1
10
190.00
20
434.00
0
VERTEX
8
1
10
190.00
20
442.80
0
VERTEX
8
1
10
194.00
20
442.80
0
VERTEX
8
1
10
194.00
20
451.60
0
VERTEX
8
1
10
190.00
20
451.60
0
VERTEX
8
1
10
190.00
20
460.40
0
VERTEX
8
1
10
194.00
20
460.40
0
VERTEX
8
1
10
194.00
20
469.20
0
VERTEX
8
1
10
190.00
20
469.20
0
VERTEX
8
1
10
190.00
20
478.00
0
VERTEX
8
1
10
182.09
20
478.00
0
VERTEX
8
1
10
182.09
20
482.00
0
VERTEX
8
1
10
174.18
20
482.00
0
VERTEX
8
1
10
174.18
20
478.00
0
VERTEX
8
1
10
166.27
20
478.00
0
VERTEX
8
1
10
166.27
20
482.00
0
VERTEX
8
1
10
158.36
20
482.00
0
VERTEX
8
1
10
158.36
20
478.00
0
VERTEX
8
1
10
150.46
20
478.00
0
VERTEX
8
1
10
150.46
20
482.00
0
VERTEX
8
1
10
142.54
20
482.00
0
VERTEX
8
1
10
142.54
20
478.00
0
VERTEX
8
1
10
134.64
20
478.00
0
VERTEX
8
1
10
134.64
20
482.00
0
VERTEX
8
1
10
126.73
20
482.00
0
VERTEX
8
1
10
126.73
20
478.00
0
VERTEX
8
1
10
118.82
20
478.00
0
VERTEX
8
1
10
118.82
20
482.00
0
VERTEX
8
1
10
110.91
20
482.00
0
VERTEX
8
1
10
110.91
20
478.00
0
VERTEX
8
1
10
103.00
20
478.00
0
VERTEX
8
1
10
103.00
20
469.20
0
VERTEX
8
1
10
99.00
20
469.20
0
VERTEX
8
1
10
99.00
20
460.40
0
VERTEX
8
1
10
103.00
20
460.40
0
VERTEX
8
1
10
103.00
20
451.60
0
VERTEX
8
1
10
99.00
20
451.60
0
VERTEX
8
1
10
99.00
20
442.80
0
VERTEX
8
1
10
103.00
20
442.80
0
VERTEX
8
1
10
103.00
20
434.00
0
VERTEX
8
1
10
99.00
20
434.00
0
VERTEX
8
1
10
99.00
20
425.20
0
VERTEX
8
1
10
103.00
20
425.20
0
VERTEX
8
1
10
103.00
20
416.40
0
VERTEX
8
1
10
99.00
20
416.40
0
VERTEX
8
1
10
99.00
20
407.60
0
VERTEX
8
1
10
103.00
20
407.60
0
VERTEX
8
1
10
103.00
20
398.80
0
VERTEX
8
1
10
99.00
20
398.80
0
VERTEX
8
1
10
99.00
20
390.00
0
VERTEX
8
1
10
103.00
20
390.00
0
VERTEX
8
1
10
103.00
20
381.20
0
VERTEX
8
1
10
99.00
20
381.20
0
VERTEX
8
1
10
99.00
20
372.40
0
VERTEX
8
1
10
103.00
20
372.40
0
VERTEX
8
1
10
103.00
20
363.60
0
VERTEX
8
1
10
99.00
20
363.60
0
VERTEX
8
1
10
99.00
20
354.80
0
VERTEX
8
1
10
103.00
20
354.80
0
VERTEX
8
1
10
103.00
20
346.00
0
SEQEND
0
POLYLINE
8
1
66
1
70
0
0
VERTEX
8
1
10
116.27
20
410.00
0
VERTEX
8
1
10
124.91
20
410.00
0
VERTEX
8
1
10
124.91
20
414.00
0
VERTEX
8
1
10
116.27
20
414.00
0
VERTEX
8
1
10
116.27
20
410.00
0
SEQEND
0
POLYLINE
8
1
66
1
70
0
0
VERTEX
8
1
10
133.55
20
410.00
0
VERTEX
8
1
10
142.18
20
410.00
0
VERTEX
8
1
10
142.18
20
414.00
0
VERTEX
8
1
10
133.55
20
414.00
0
VERTEX
8
1
10
133.55
20
410.00
0
SEQEND
0
POLYLINE
8
1
66
1
70
0
0
VERTEX
8
1
10
150.82
20
410.00
0
VERTEX
8
1
10
159.46
20
410.00
0
VERTEX
8
1
10
159.46
20
414.00
0
VERTEX
8
1
10
150.82
20
414.00
0
VERTEX
8
1
10
150.82
20
410.00
0
SEQEND
0
POLYLINE
8
1
66
1
70
0
0
VERTEX
8
1
10
168.09
20
410.00
0
VERTEX
8
1
10
176.73
20
410.00
0
VERTEX
8
1
10
176.73
20
414.00
0
VERTEX
8
1
10
168.09
20
414.00
0
VERTEX
8
1
10
168.09
20
410.00
0
SEQEND
0
POLYLINE
8
1
66
1
70
0
0
VERTEX
8
1
10
301.00
20
4.00
0
VERTEX
8
1
10
305.64
20
4.00
0
VERTEX
8
1
10
314.27
20
4.00
0
VERTEX
8
1
10
314.27
20
0.00
0
VERTEX
8
1
10
322.91
20
0.00
0
VERTEX
8
1
10
322.91
20
4.00
0
VERTEX
8
1
10
331.55
20
4.00
0
VERTEX
8
1
10
331.55
20
0.00
0
VERTEX
8
1
10
340.18
20
0.00
0
VERTEX
8
1
10
340.18
20
4.00
0
VERTEX
8
1
10
348.82
20
4.00
0
VERTEX
8
1
10
348.82
20
0.00
0
VERTEX
8
1
10
357.46
20
0.00
0
VERTEX
8
1
10
357.46
20
4.00
0
VERTEX
8
1
10
366.09
20
4.00
0
VERTEX
8
1
10
366.09
20
0.00
0
VERTEX
8
1
10
374.73
20
0.00
0
VERTEX
8
1
10
374.73
20
4.00
0
VERTEX
8
1
10
383.36
20
4.00
0
VERTEX
8
1
10
388.00
20
4.00
0
VERTEX
8
1
10
388.00
20
8.64
0
VERTEX
8
1
10
388.00
20
17.27
0
VERTEX
8
1
10
392.00
20
17.27
0
VERTEX
8
1
10
392.00
20
25.91
0
VERTEX
8
1
10
388.00
20
25.91
0
VERTEX
8
1
10
388.00
20
34.55
0
VERTEX
8
1
10
392.00
20
34.55
0
VERTEX
8
1
10
392.00
20
43.18
0
VERTEX
8
1
10
388.00
20
43.18
0
VERTEX
8
1
10
388.00
20
51.82
0
VERTEX
8
1
10
392.00
20
51.82
0
VERTEX
8
1
10
392.00
20
60.45
0
VERTEX
8
1
10
388.00
20
60.45
0
VERTEX
8
1
10
388.00
20
69.09
0
VERTEX
8
1
10
392.00
20
69.09
0
VERTEX
8
1
10
392.00
20
77.73
0
VERTEX
8
1
10
388.00
20
77.73
0
VERTEX
8
1
10
388.00
20
86.36
0
VERTEX
8
1
10
388.00
20
91.00
0
VERTEX
8
1
10
383.36
20
91.00
0
VERTEX
8
1
10
374.73
20
91.00
0
VERTEX
8
1
10
374.73
20
95.00
0
VERTEX
8
1
10
366.09
20
95.00
0
VERTEX
8
1
10
366.09
20
91.00
0
VERTEX
8
1
10
357.46
20
91.00
0
VERTEX
8
1
10
357.46
20
95.00
0
VERTEX
8
1
10
348.82
20
95.00
0
VERTEX
8
1
10
348.82
20
91.00
0
VERTEX
8
1
10
340.18
20
91.00
0
VERTEX
8
1
10
340.18
20
95.00
0
VERTEX
8
1
10
331.55
20
95.00
0
VERTEX
8
1
10
331.55
20
91.00
0
VERTEX
8
1
10
322.91
20
91.00
0
VERTEX
8
1
10
322.91
20
95.00
0
VERTEX
8
1
10
314.27
20
95.00
0
VERTEX
8
1
10
314.27
20
91.00
0
VERTEX
8
1
10
305.64
20
91.00
0
VERTEX
8
1
10
301.00
20
91.00
0
VERTEX
8
1
10
301.00
20
86.36
0
VERTEX
8
1
10
301.00
20
77.73
0
VERTEX
8
1
10
297.00
20
77.73
0
VERTEX
8
1
10
297.00
20
69.09
0
VERTEX
8
1
10
301.00
20
69.09
0
VERTEX
8
1
10
301.00
20
60.45
0
VERTEX
8
1
10
297.00
20
60.45
0
VERTEX
8
1
10
297.00
20
51.82
0
VERTEX
8
1
10
301.00
20
51.82
0
VERTEX
8
1
10
301.00
20
43.18
0
VERTEX
8
1
10
297.00
20
43.18
0
VERTEX
8
1
10
297.00
20
34.55
0
VERTEX
8
1
10
301.00
20
34.55
0
VERTEX
8
1
10
301.00
20
25.91
0
VERTEX
8
1
10
297.00
20
25.91
0
VERTEX
8
1
10
297.00
20
17.27
0
VERTEX
8
1
10
301.00
20
17.27
0
VERTEX
8
1
10
301.00
20
8.64
0
VERTEX
8
1
10
301.00
20
4.00
0
SEQEND
0
ENDSEC
0
EOF
